{
  "header": {
    "keySignatures": [
      {
        "key": "C",
        "scale": "major",
        "ticks": 0
      },
      {
        "key": "C",
        "scale": "major",
        "ticks": 0
      }
    ],
    "meta": [],
    "name": "",
    "ppq": 480,
    "tempos": [
      {
        "bpm": 110.9999056500802,
        "ticks": 0
      }
    ],
    "timeSignatures": [
      {
        "ticks": 0,
        "timeSignature": [
          12,
          8
        ],
        "measures": 0
      }
    ]
  },
  "tracks": [
    {
      "channel": 0,
      "controlChanges": {
        "7": [
          {
            "number": 7,
            "ticks": 0,
            "time": 0,
            "value": 0.7874015748031497
          }
        ],
        "10": [
          {
            "number": 10,
            "ticks": 0,
            "time": 0,
            "value": 0.5039370078740157
          }
        ],
        "91": [
          {
            "number": 91,
            "ticks": 0,
            "time": 0,
            "value": 0
          }
        ],
        "93": [
          {
            "number": 93,
            "ticks": 0,
            "time": 0,
            "value": 0
          }
        ],
        "121": [
          {
            "number": 121,
            "ticks": 0,
            "time": 0,
            "value": 0
          }
        ]
      },
      "pitchBends": [],
      "instrument": {
        "family": "piano",
        "name": "acoustic grand piano",
        "number": 0
      },
      "name": "",
      "notes": [
        {
          "duration": 0.7691447979166677,
          "durationTicks": 683,
          "midi": 57,
          "name": "A3",
          "ticks": 5760,
          "time": 6.486492,
          "velocity": 0.6299212598425197
        },
        {
          "duration": 0.7691447979166677,
          "durationTicks": 683,
          "midi": 60,
          "name": "C4",
          "ticks": 6480,
          "time": 7.297303500000001,
          "velocity": 0.6299212598425197
        },
        {
          "duration": 0.769144797916665,
          "durationTicks": 683,
          "midi": 62,
          "name": "D4",
          "ticks": 7200,
          "time": 8.108115000000002,
          "velocity": 0.6299212598425197
        },
        {
          "duration": 3.8502284979166657,
          "durationTicks": 3419,
          "midi": 64,
          "name": "E4",
          "ticks": 7920,
          "time": 8.918926500000001,
          "velocity": 0.6299212598425197
        },
        {
          "duration": 0.7691447979166668,
          "durationTicks": 683,
          "midi": 57,
          "name": "A3",
          "ticks": 11520,
          "time": 12.972984,
          "velocity": 0.6299212598425197
        },
        {
          "duration": 0.769144797916665,
          "durationTicks": 683,
          "midi": 64,
          "name": "E4",
          "ticks": 12240,
          "time": 13.783795500000002,
          "velocity": 0.6299212598425197
        },
        {
          "duration": 0.769144797916665,
          "durationTicks": 683,
          "midi": 62,
          "name": "D4",
          "ticks": 12960,
          "time": 14.594607000000002,
          "velocity": 0.6299212598425197
        },
        {
          "duration": 3.850228497916669,
          "durationTicks": 3419,
          "midi": 60,
          "name": "C4",
          "ticks": 13680,
          "time": 15.405418500000001,
          "velocity": 0.6299212598425197
        },
        {
          "duration": 0.7691447979166668,
          "durationTicks": 683,
          "midi": 57,
          "name": "A3",
          "ticks": 17280,
          "time": 19.459476000000002,
          "velocity": 0.6299212598425197
        },
        {
          "duration": 0.7691447979166668,
          "durationTicks": 683,
          "midi": 60,
          "name": "C4",
          "ticks": 18000,
          "time": 20.270287500000002,
          "velocity": 0.6299212598425197
        },
        {
          "duration": 0.7691447979166668,
          "durationTicks": 683,
          "midi": 62,
          "name": "D4",
          "ticks": 18720,
          "time": 21.081099000000002,
          "velocity": 0.6299212598425197
        },
        {
          "duration": 0.7691447979166668,
          "durationTicks": 683,
          "midi": 64,
          "name": "E4",
          "ticks": 19440,
          "time": 21.8919105,
          "velocity": 0.6299212598425197
        },
        {
          "duration": 3.0799575729166655,
          "durationTicks": 2735,
          "midi": 55,
          "name": "G3",
          "ticks": 20160,
          "time": 22.702722,
          "velocity": 0.6299212598425197
        },
        {
          "duration": 0.7691447979166668,
          "durationTicks": 683,
          "midi": 58,
          "name": "A#3",
          "ticks": 23040,
          "time": 25.945968,
          "velocity": 0.6299212598425197
        },
        {
          "duration": 0.7691447979166632,
          "durationTicks": 683,
          "midi": 65,
          "name": "F4",
          "ticks": 23760,
          "time": 26.756779500000004,
          "velocity": 0.6299212598425197
        },
        {
          "duration": 0.7691447979166632,
          "durationTicks": 683,
          "midi": 64,
          "name": "E4",
          "ticks": 24480,
          "time": 27.567591000000004,
          "velocity": 0.6299212598425197
        },
        {
          "duration": 0.7691447979166668,
          "durationTicks": 683,
          "midi": 62,
          "name": "D4",
          "ticks": 25200,
          "time": 28.378402500000004,
          "velocity": 0.6299212598425197
        },
        {
          "duration": 3.0799575729166655,
          "durationTicks": 2735,
          "midi": 57,
          "name": "A3",
          "ticks": 25920,
          "time": 29.189214000000003,
          "velocity": 0.6299212598425197
        },
        {
          "duration": 3.0799575729166655,
          "durationTicks": 2735,
          "midi": 64,
          "name": "E4",
          "ticks": 25920,
          "time": 29.189214000000003,
          "velocity": 0.6299212598425197
        },
        {
          "duration": 0.512387822916665,
          "durationTicks": 455,
          "midi": 64,
          "name": "E4",
          "ticks": 28800,
          "time": 32.432460000000006,
          "velocity": 0.6299212598425197
        },
        {
          "duration": 0.512387822916665,
          "durationTicks": 455,
          "midi": 76,
          "name": "E5",
          "ticks": 28800,
          "time": 32.432460000000006,
          "velocity": 0.6299212598425197
        },
        {
          "duration": 0.25563084791667023,
          "durationTicks": 227,
          "midi": 65,
          "name": "F4",
          "ticks": 29280,
          "time": 32.973001000000004,
          "velocity": 0.6299212598425197
        },
        {
          "duration": 0.25563084791667023,
          "durationTicks": 227,
          "midi": 77,
          "name": "F5",
          "ticks": 29280,
          "time": 32.973001000000004,
          "velocity": 0.6299212598425197
        },
        {
          "duration": 0.512387822916665,
          "durationTicks": 455,
          "midi": 64,
          "name": "E4",
          "ticks": 29520,
          "time": 33.243271500000006,
          "velocity": 0.6299212598425197
        },
        {
          "duration": 0.512387822916665,
          "durationTicks": 455,
          "midi": 76,
          "name": "E5",
          "ticks": 29520,
          "time": 33.243271500000006,
          "velocity": 0.6299212598425197
        },
        {
          "duration": 0.25563084791667023,
          "durationTicks": 227,
          "midi": 65,
          "name": "F4",
          "ticks": 30000,
          "time": 33.7838125,
          "velocity": 0.6299212598425197
        },
        {
          "duration": 0.25563084791667023,
          "durationTicks": 227,
          "midi": 77,
          "name": "F5",
          "ticks": 30000,
          "time": 33.7838125,
          "velocity": 0.6299212598425197
        },
        {
          "duration": 0.25563084791666313,
          "durationTicks": 227,
          "midi": 64,
          "name": "E4",
          "ticks": 30240,
          "time": 34.054083000000006,
          "velocity": 0.6299212598425197
        },
        {
          "duration": 0.25563084791666313,
          "durationTicks": 227,
          "midi": 76,
          "name": "E5",
          "ticks": 30240,
          "time": 34.054083000000006,
          "velocity": 0.6299212598425197
        },
        {
          "duration": 0.25563084791667023,
          "durationTicks": 227,
          "midi": 62,
          "name": "D4",
          "ticks": 30480,
          "time": 34.3243535,
          "velocity": 0.6299212598425197
        },
        {
          "duration": 0.25563084791667023,
          "durationTicks": 227,
          "midi": 74,
          "name": "D5",
          "ticks": 30480,
          "time": 34.3243535,
          "velocity": 0.6299212598425197
        },
        {
          "duration": 1.0259017729166615,
          "durationTicks": 911,
          "midi": 60,
          "name": "C4",
          "ticks": 30720,
          "time": 34.594624,
          "velocity": 0.6299212598425197
        },
        {
          "duration": 1.0259017729166615,
          "durationTicks": 911,
          "midi": 72,
          "name": "C5",
          "ticks": 30720,
          "time": 34.594624,
          "velocity": 0.6299212598425197
        },
        {
          "duration": 3.079957572916669,
          "durationTicks": 2735,
          "midi": 62,
          "name": "D4",
          "ticks": 31680,
          "time": 35.675706000000005,
          "velocity": 0.6299212598425197
        },
        {
          "duration": 3.079957572916669,
          "durationTicks": 2735,
          "midi": 74,
          "name": "D5",
          "ticks": 31680,
          "time": 35.675706000000005,
          "velocity": 0.6299212598425197
        },
        {
          "duration": 0.512387822916665,
          "durationTicks": 455,
          "midi": 62,
          "name": "D4",
          "ticks": 34560,
          "time": 38.918952000000004,
          "velocity": 0.6299212598425197
        },
        {
          "duration": 0.512387822916665,
          "durationTicks": 455,
          "midi": 74,
          "name": "D5",
          "ticks": 34560,
          "time": 38.918952000000004,
          "velocity": 0.6299212598425197
        },
        {
          "duration": 0.25563084791666313,
          "durationTicks": 227,
          "midi": 64,
          "name": "E4",
          "ticks": 35040,
          "time": 39.459493,
          "velocity": 0.6299212598425197
        },
        {
          "duration": 0.25563084791666313,
          "durationTicks": 227,
          "midi": 76,
          "name": "E5",
          "ticks": 35040,
          "time": 39.459493,
          "velocity": 0.6299212598425197
        },
        {
          "duration": 0.5123878229166721,
          "durationTicks": 455,
          "midi": 62,
          "name": "D4",
          "ticks": 35280,
          "time": 39.729763500000004,
          "velocity": 0.6299212598425197
        },
        {
          "duration": 0.5123878229166721,
          "durationTicks": 455,
          "midi": 74,
          "name": "D5",
          "ticks": 35280,
          "time": 39.729763500000004,
          "velocity": 0.6299212598425197
        },
        {
          "duration": 0.25563084791666313,
          "durationTicks": 227,
          "midi": 64,
          "name": "E4",
          "ticks": 35760,
          "time": 40.2703045,
          "velocity": 0.6299212598425197
        },
        {
          "duration": 0.25563084791666313,
          "durationTicks": 227,
          "midi": 76,
          "name": "E5",
          "ticks": 35760,
          "time": 40.2703045,
          "velocity": 0.6299212598425197
        },
        {
          "duration": 0.25563084791666313,
          "durationTicks": 227,
          "midi": 62,
          "name": "D4",
          "ticks": 36000,
          "time": 40.540575000000004,
          "velocity": 0.6299212598425197
        },
        {
          "duration": 0.25563084791666313,
          "durationTicks": 227,
          "midi": 74,
          "name": "D5",
          "ticks": 36000,
          "time": 40.540575000000004,
          "velocity": 0.6299212598425197
        },
        {
          "duration": 0.25563084791666313,
          "durationTicks": 227,
          "midi": 60,
          "name": "C4",
          "ticks": 36240,
          "time": 40.810845500000006,
          "velocity": 0.6299212598425197
        },
        {
          "duration": 0.25563084791666313,
          "durationTicks": 227,
          "midi": 72,
          "name": "C5",
          "ticks": 36240,
          "time": 40.810845500000006,
          "velocity": 0.6299212598425197
        },
        {
          "duration": 1.0259017729166686,
          "durationTicks": 911,
          "midi": 55,
          "name": "G3",
          "ticks": 36480,
          "time": 41.081116,
          "velocity": 0.6299212598425197
        },
        {
          "duration": 1.0259017729166686,
          "durationTicks": 911,
          "midi": 67,
          "name": "G4",
          "ticks": 36480,
          "time": 41.081116,
          "velocity": 0.6299212598425197
        },
        {
          "duration": 3.079957572916669,
          "durationTicks": 2735,
          "midi": 57,
          "name": "A3",
          "ticks": 37440,
          "time": 42.162198000000004,
          "velocity": 0.6299212598425197
        },
        {
          "duration": 3.079957572916669,
          "durationTicks": 2735,
          "midi": 69,
          "name": "A4",
          "ticks": 37440,
          "time": 42.162198000000004,
          "velocity": 0.6299212598425197
        },
        {
          "duration": 0.5123878229166721,
          "durationTicks": 455,
          "midi": 65,
          "name": "F4",
          "ticks": 40320,
          "time": 45.405444,
          "velocity": 0.6299212598425197
        },
        {
          "duration": 0.5123878229166721,
          "durationTicks": 455,
          "midi": 77,
          "name": "F5",
          "ticks": 40320,
          "time": 45.405444,
          "velocity": 0.6299212598425197
        },
        {
          "duration": 0.25563084791666313,
          "durationTicks": 227,
          "midi": 67,
          "name": "G4",
          "ticks": 40800,
          "time": 45.94598500000001,
          "velocity": 0.6299212598425197
        },
        {
          "duration": 0.25563084791666313,
          "durationTicks": 227,
          "midi": 79,
          "name": "G5",
          "ticks": 40800,
          "time": 45.94598500000001,
          "velocity": 0.6299212598425197
        },
        {
          "duration": 0.5123878229166721,
          "durationTicks": 455,
          "midi": 65,
          "name": "F4",
          "ticks": 41040,
          "time": 46.2162555,
          "velocity": 0.6299212598425197
        },
        {
          "duration": 0.5123878229166721,
          "durationTicks": 455,
          "midi": 77,
          "name": "F5",
          "ticks": 41040,
          "time": 46.2162555,
          "velocity": 0.6299212598425197
        },
        {
          "duration": 0.25563084791666313,
          "durationTicks": 227,
          "midi": 67,
          "name": "G4",
          "ticks": 41520,
          "time": 46.75679650000001,
          "velocity": 0.6299212598425197
        },
        {
          "duration": 0.25563084791666313,
          "durationTicks": 227,
          "midi": 79,
          "name": "G5",
          "ticks": 41520,
          "time": 46.75679650000001,
          "velocity": 0.6299212598425197
        },
        {
          "duration": 0.25563084791666313,
          "durationTicks": 227,
          "midi": 65,
          "name": "F4",
          "ticks": 41760,
          "time": 47.027067,
          "velocity": 0.6299212598425197
        },
        {
          "duration": 0.25563084791666313,
          "durationTicks": 227,
          "midi": 77,
          "name": "F5",
          "ticks": 41760,
          "time": 47.027067,
          "velocity": 0.6299212598425197
        },
        {
          "duration": 0.25563084791666313,
          "durationTicks": 227,
          "midi": 64,
          "name": "E4",
          "ticks": 42000,
          "time": 47.297337500000005,
          "velocity": 0.6299212598425197
        },
        {
          "duration": 0.25563084791666313,
          "durationTicks": 227,
          "midi": 76,
          "name": "E5",
          "ticks": 42000,
          "time": 47.297337500000005,
          "velocity": 0.6299212598425197
        },
        {
          "duration": 0.7691447979166668,
          "durationTicks": 683,
          "midi": 62,
          "name": "D4",
          "ticks": 42240,
          "time": 47.56760800000001,
          "velocity": 0.6299212598425197
        },
        {
          "duration": 0.7691447979166668,
          "durationTicks": 683,
          "midi": 74,
          "name": "D5",
          "ticks": 42240,
          "time": 47.56760800000001,
          "velocity": 0.6299212598425197
        },
        {
          "duration": 0.25563084791666313,
          "durationTicks": 227,
          "midi": 65,
          "name": "F4",
          "ticks": 42960,
          "time": 48.37841950000001,
          "velocity": 0.6299212598425197
        },
        {
          "duration": 0.25563084791666313,
          "durationTicks": 227,
          "midi": 77,
          "name": "F5",
          "ticks": 42960,
          "time": 48.37841950000001,
          "velocity": 0.6299212598425197
        },
        {
          "duration": 3.079957572916669,
          "durationTicks": 2735,
          "midi": 64,
          "name": "E4",
          "ticks": 43200,
          "time": 48.64869,
          "velocity": 0.6299212598425197
        },
        {
          "duration": 3.079957572916669,
          "durationTicks": 2735,
          "midi": 76,
          "name": "E5",
          "ticks": 43200,
          "time": 48.64869,
          "velocity": 0.6299212598425197
        },
        {
          "duration": 0.1272523604166622,
          "durationTicks": 113,
          "midi": 53,
          "name": "F3",
          "ticks": 46200,
          "time": 52.027071250000006,
          "velocity": 0.6299212598425197
        },
        {
          "duration": 0.12725236041666932,
          "durationTicks": 113,
          "midi": 58,
          "name": "A#3",
          "ticks": 46320,
          "time": 52.1622065,
          "velocity": 0.6299212598425197
        },
        {
          "duration": 0.1272523604166622,
          "durationTicks": 113,
          "midi": 60,
          "name": "C4",
          "ticks": 46440,
          "time": 52.29734175000001,
          "velocity": 0.6299212598425197
        },
        {
          "duration": 0.25563084791666313,
          "durationTicks": 227,
          "midi": 62,
          "name": "D4",
          "ticks": 46560,
          "time": 52.432477000000006,
          "velocity": 0.6299212598425197
        },
        {
          "duration": 0.1272523604166622,
          "durationTicks": 113,
          "midi": 52,
          "name": "E3",
          "ticks": 46920,
          "time": 52.837882750000006,
          "velocity": 0.6299212598425197
        },
        {
          "duration": 0.12725236041666932,
          "durationTicks": 113,
          "midi": 57,
          "name": "A3",
          "ticks": 47040,
          "time": 52.973018,
          "velocity": 0.6299212598425197
        },
        {
          "duration": 0.1272523604166622,
          "durationTicks": 113,
          "midi": 58,
          "name": "A#3",
          "ticks": 47160,
          "time": 53.10815325000001,
          "velocity": 0.6299212598425197
        },
        {
          "duration": 0.25563084791666313,
          "durationTicks": 227,
          "midi": 60,
          "name": "C4",
          "ticks": 47280,
          "time": 53.243288500000006,
          "velocity": 0.6299212598425197
        },
        {
          "duration": 0.1272523604166622,
          "durationTicks": 113,
          "midi": 52,
          "name": "E3",
          "ticks": 47640,
          "time": 53.648694250000005,
          "velocity": 0.6299212598425197
        },
        {
          "duration": 0.12725236041666932,
          "durationTicks": 113,
          "midi": 56,
          "name": "G#3",
          "ticks": 47760,
          "time": 53.7838295,
          "velocity": 0.6299212598425197
        },
        {
          "duration": 0.1272523604166622,
          "durationTicks": 113,
          "midi": 58,
          "name": "A#3",
          "ticks": 47880,
          "time": 53.91896475000001,
          "velocity": 0.6299212598425197
        },
        {
          "duration": 0.25563084791666313,
          "durationTicks": 227,
          "midi": 60,
          "name": "C4",
          "ticks": 48000,
          "time": 54.054100000000005,
          "velocity": 0.6299212598425197
        },
        {
          "duration": 0.12725236041666932,
          "durationTicks": 113,
          "midi": 52,
          "name": "E3",
          "ticks": 48360,
          "time": 54.459505750000005,
          "velocity": 0.6299212598425197
        },
        {
          "duration": 0.12725236041666932,
          "durationTicks": 113,
          "midi": 55,
          "name": "G3",
          "ticks": 48480,
          "time": 54.594641,
          "velocity": 0.6299212598425197
        },
        {
          "duration": 0.1272523604166622,
          "durationTicks": 113,
          "midi": 56,
          "name": "G#3",
          "ticks": 48600,
          "time": 54.72977625000001,
          "velocity": 0.6299212598425197
        },
        {
          "duration": 0.25563084791666313,
          "durationTicks": 227,
          "midi": 58,
          "name": "A#3",
          "ticks": 48720,
          "time": 54.864911500000005,
          "velocity": 0.6299212598425197
        },
        {
          "duration": 0.1272523604166622,
          "durationTicks": 113,
          "midi": 60,
          "name": "C4",
          "ticks": 48960,
          "time": 55.13518200000001,
          "velocity": 0.6299212598425197
        },
        {
          "duration": 0.12725236041666932,
          "durationTicks": 113,
          "midi": 64,
          "name": "E4",
          "ticks": 49080,
          "time": 55.270317250000005,
          "velocity": 0.6299212598425197
        },
        {
          "duration": 0.12725236041666932,
          "durationTicks": 113,
          "midi": 65,
          "name": "F4",
          "ticks": 49200,
          "time": 55.4054525,
          "velocity": 0.6299212598425197
        },
        {
          "duration": 0.1272523604166622,
          "durationTicks": 113,
          "midi": 68,
          "name": "G#4",
          "ticks": 49320,
          "time": 55.54058775000001,
          "velocity": 0.6299212598425197
        },
        {
          "duration": 0.25563084791666313,
          "durationTicks": 227,
          "midi": 69,
          "name": "A4",
          "ticks": 49440,
          "time": 55.675723000000005,
          "velocity": 0.6299212598425197
        },
        {
          "duration": 0.1272523604166622,
          "durationTicks": 113,
          "midi": 60,
          "name": "C4",
          "ticks": 49680,
          "time": 55.94599350000001,
          "velocity": 0.6299212598425197
        },
        {
          "duration": 0.12725236041666932,
          "durationTicks": 113,
          "midi": 64,
          "name": "E4",
          "ticks": 49800,
          "time": 56.081128750000005,
          "velocity": 0.6299212598425197
        },
        {
          "duration": 0.12725236041666932,
          "durationTicks": 113,
          "midi": 65,
          "name": "F4",
          "ticks": 49920,
          "time": 56.216264,
          "velocity": 0.6299212598425197
        },
        {
          "duration": 0.1272523604166622,
          "durationTicks": 113,
          "midi": 68,
          "name": "G#4",
          "ticks": 50040,
          "time": 56.35139925000001,
          "velocity": 0.6299212598425197
        },
        {
          "duration": 0.25563084791666313,
          "durationTicks": 227,
          "midi": 69,
          "name": "A4",
          "ticks": 50160,
          "time": 56.486534500000005,
          "velocity": 0.6299212598425197
        },
        {
          "duration": 0.1272523604166622,
          "durationTicks": 113,
          "midi": 60,
          "name": "C4",
          "ticks": 50400,
          "time": 56.75680500000001,
          "velocity": 0.6299212598425197
        },
        {
          "duration": 0.12725236041666932,
          "durationTicks": 113,
          "midi": 64,
          "name": "E4",
          "ticks": 50520,
          "time": 56.891940250000005,
          "velocity": 0.6299212598425197
        },
        {
          "duration": 0.12725236041666932,
          "durationTicks": 113,
          "midi": 65,
          "name": "F4",
          "ticks": 50640,
          "time": 57.0270755,
          "velocity": 0.6299212598425197
        },
        {
          "duration": 0.1272523604166622,
          "durationTicks": 113,
          "midi": 68,
          "name": "G#4",
          "ticks": 50760,
          "time": 57.16221075000001,
          "velocity": 0.6299212598425197
        },
        {
          "duration": 0.25563084791666313,
          "durationTicks": 227,
          "midi": 69,
          "name": "A4",
          "ticks": 50880,
          "time": 57.297346000000005,
          "velocity": 0.6299212598425197
        },
        {
          "duration": 0.1272523604166622,
          "durationTicks": 113,
          "midi": 60,
          "name": "C4",
          "ticks": 51120,
          "time": 57.56761650000001,
          "velocity": 0.6299212598425197
        },
        {
          "duration": 0.12725236041666932,
          "durationTicks": 113,
          "midi": 64,
          "name": "E4",
          "ticks": 51240,
          "time": 57.702751750000004,
          "velocity": 0.6299212598425197
        },
        {
          "duration": 0.12725236041666932,
          "durationTicks": 113,
          "midi": 65,
          "name": "F4",
          "ticks": 51360,
          "time": 57.837887,
          "velocity": 0.6299212598425197
        },
        {
          "duration": 0.1272523604166622,
          "durationTicks": 113,
          "midi": 68,
          "name": "G#4",
          "ticks": 51480,
          "time": 57.97302225000001,
          "velocity": 0.6299212598425197
        },
        {
          "duration": 0.25563084791666313,
          "durationTicks": 227,
          "midi": 69,
          "name": "A4",
          "ticks": 51600,
          "time": 58.108157500000004,
          "velocity": 0.6299212598425197
        },
        {
          "duration": 0.1272523604166622,
          "durationTicks": 113,
          "midi": 60,
          "name": "C4",
          "ticks": 51840,
          "time": 58.37842800000001,
          "velocity": 0.6299212598425197
        },
        {
          "duration": 0.12725236041666932,
          "durationTicks": 113,
          "midi": 65,
          "name": "F4",
          "ticks": 51960,
          "time": 58.513563250000004,
          "velocity": 0.6299212598425197
        },
        {
          "duration": 0.12725236041666932,
          "durationTicks": 113,
          "midi": 68,
          "name": "G#4",
          "ticks": 52080,
          "time": 58.6486985,
          "velocity": 0.6299212598425197
        },
        {
          "duration": 0.38400933541666404,
          "durationTicks": 341,
          "midi": 69,
          "name": "A4",
          "ticks": 52200,
          "time": 58.78383375000001,
          "velocity": 0.6299212598425197
        },
        {
          "duration": 0.1272523604166622,
          "durationTicks": 113,
          "midi": 60,
          "name": "C4",
          "ticks": 52560,
          "time": 59.189239500000006,
          "velocity": 0.6299212598425197
        },
        {
          "duration": 0.12725236041666932,
          "durationTicks": 113,
          "midi": 65,
          "name": "F4",
          "ticks": 52680,
          "time": 59.324374750000004,
          "velocity": 0.6299212598425197
        },
        {
          "duration": 0.1272523604166622,
          "durationTicks": 113,
          "midi": 68,
          "name": "G#4",
          "ticks": 52800,
          "time": 59.45951000000001,
          "velocity": 0.6299212598425197
        },
        {
          "duration": 0.38400933541666404,
          "durationTicks": 341,
          "midi": 69,
          "name": "A4",
          "ticks": 52920,
          "time": 59.594645250000006,
          "velocity": 0.6299212598425197
        },
        {
          "duration": 0.1272523604166622,
          "durationTicks": 113,
          "midi": 60,
          "name": "C4",
          "ticks": 53280,
          "time": 60.000051000000006,
          "velocity": 0.6299212598425197
        },
        {
          "duration": 0.12725236041666932,
          "durationTicks": 113,
          "midi": 65,
          "name": "F4",
          "ticks": 53400,
          "time": 60.135186250000004,
          "velocity": 0.6299212598425197
        },
        {
          "duration": 0.1272523604166622,
          "durationTicks": 113,
          "midi": 68,
          "name": "G#4",
          "ticks": 53520,
          "time": 60.27032150000001,
          "velocity": 0.6299212598425197
        },
        {
          "duration": 0.38400933541666404,
          "durationTicks": 341,
          "midi": 69,
          "name": "A4",
          "ticks": 53640,
          "time": 60.405456750000006,
          "velocity": 0.6299212598425197
        },
        {
          "duration": 0.1272523604166622,
          "durationTicks": 113,
          "midi": 60,
          "name": "C4",
          "ticks": 54000,
          "time": 60.810862500000006,
          "velocity": 0.6299212598425197
        },
        {
          "duration": 0.12725236041666932,
          "durationTicks": 113,
          "midi": 65,
          "name": "F4",
          "ticks": 54120,
          "time": 60.945997750000004,
          "velocity": 0.6299212598425197
        },
        {
          "duration": 0.1272523604166622,
          "durationTicks": 113,
          "midi": 68,
          "name": "G#4",
          "ticks": 54240,
          "time": 61.08113300000001,
          "velocity": 0.6299212598425197
        },
        {
          "duration": 0.38400933541666404,
          "durationTicks": 341,
          "midi": 69,
          "name": "A4",
          "ticks": 54360,
          "time": 61.216268250000006,
          "velocity": 0.6299212598425197
        },
        {
          "duration": 0.12725236041666932,
          "durationTicks": 113,
          "midi": 60,
          "name": "C4",
          "ticks": 54720,
          "time": 61.621674000000006,
          "velocity": 0.6299212598425197
        },
        {
          "duration": 0.12725236041666932,
          "durationTicks": 113,
          "midi": 64,
          "name": "E4",
          "ticks": 54840,
          "time": 61.75680925,
          "velocity": 0.6299212598425197
        },
        {
          "duration": 0.1272523604166622,
          "durationTicks": 113,
          "midi": 65,
          "name": "F4",
          "ticks": 54960,
          "time": 61.89194450000001,
          "velocity": 0.6299212598425197
        },
        {
          "duration": 0.12725236041666932,
          "durationTicks": 113,
          "midi": 68,
          "name": "G#4",
          "ticks": 55080,
          "time": 62.027079750000006,
          "velocity": 0.6299212598425197
        },
        {
          "duration": 0.25563084791667023,
          "durationTicks": 227,
          "midi": 69,
          "name": "A4",
          "ticks": 55200,
          "time": 62.162215,
          "velocity": 0.6299212598425197
        },
        {
          "duration": 0.12725236041666932,
          "durationTicks": 113,
          "midi": 60,
          "name": "C4",
          "ticks": 55440,
          "time": 62.432485500000006,
          "velocity": 0.6299212598425197
        },
        {
          "duration": 0.12725236041666932,
          "durationTicks": 113,
          "midi": 64,
          "name": "E4",
          "ticks": 55560,
          "time": 62.56762075,
          "velocity": 0.6299212598425197
        },
        {
          "duration": 0.1272523604166622,
          "durationTicks": 113,
          "midi": 65,
          "name": "F4",
          "ticks": 55680,
          "time": 62.70275600000001,
          "velocity": 0.6299212598425197
        },
        {
          "duration": 0.12725236041666932,
          "durationTicks": 113,
          "midi": 68,
          "name": "G#4",
          "ticks": 55800,
          "time": 62.837891250000006,
          "velocity": 0.6299212598425197
        },
        {
          "duration": 0.25563084791667023,
          "durationTicks": 227,
          "midi": 69,
          "name": "A4",
          "ticks": 55920,
          "time": 62.9730265,
          "velocity": 0.6299212598425197
        },
        {
          "duration": 0.12725236041666932,
          "durationTicks": 113,
          "midi": 60,
          "name": "C4",
          "ticks": 56160,
          "time": 63.243297000000005,
          "velocity": 0.6299212598425197
        },
        {
          "duration": 0.12725236041666932,
          "durationTicks": 113,
          "midi": 64,
          "name": "E4",
          "ticks": 56280,
          "time": 63.37843225,
          "velocity": 0.6299212598425197
        },
        {
          "duration": 0.1272523604166622,
          "durationTicks": 113,
          "midi": 65,
          "name": "F4",
          "ticks": 56400,
          "time": 63.51356750000001,
          "velocity": 0.6299212598425197
        },
        {
          "duration": 0.12725236041666932,
          "durationTicks": 113,
          "midi": 68,
          "name": "G#4",
          "ticks": 56520,
          "time": 63.648702750000005,
          "velocity": 0.6299212598425197
        },
        {
          "duration": 0.25563084791666313,
          "durationTicks": 227,
          "midi": 69,
          "name": "A4",
          "ticks": 56640,
          "time": 63.783838,
          "velocity": 0.6299212598425197
        },
        {
          "duration": 0.1272523604166622,
          "durationTicks": 113,
          "midi": 60,
          "name": "C4",
          "ticks": 56880,
          "time": 64.05410850000001,
          "velocity": 0.6299212598425197
        },
        {
          "duration": 0.1272523604166622,
          "durationTicks": 113,
          "midi": 64,
          "name": "E4",
          "ticks": 57000,
          "time": 64.18924375,
          "velocity": 0.6299212598425197
        },
        {
          "duration": 0.1272523604166622,
          "durationTicks": 113,
          "midi": 65,
          "name": "F4",
          "ticks": 57120,
          "time": 64.32437900000001,
          "velocity": 0.6299212598425197
        },
        {
          "duration": 0.1272523604166622,
          "durationTicks": 113,
          "midi": 68,
          "name": "G#4",
          "ticks": 57240,
          "time": 64.45951425000001,
          "velocity": 0.6299212598425197
        },
        {
          "duration": 0.25563084791666313,
          "durationTicks": 227,
          "midi": 69,
          "name": "A4",
          "ticks": 57360,
          "time": 64.5946495,
          "velocity": 0.6299212598425197
        },
        {
          "duration": 0.512387822916665,
          "durationTicks": 455,
          "midi": 64,
          "name": "E4",
          "ticks": 57600,
          "time": 64.86492000000001,
          "velocity": 0.6299212598425197
        },
        {
          "duration": 0.512387822916665,
          "durationTicks": 455,
          "midi": 76,
          "name": "E5",
          "ticks": 57600,
          "time": 64.86492000000001,
          "velocity": 0.6299212598425197
        },
        {
          "duration": 0.25563084791666313,
          "durationTicks": 227,
          "midi": 65,
          "name": "F4",
          "ticks": 58080,
          "time": 65.405461,
          "velocity": 0.6299212598425197
        },
        {
          "duration": 0.25563084791666313,
          "durationTicks": 227,
          "midi": 77,
          "name": "F5",
          "ticks": 58080,
          "time": 65.405461,
          "velocity": 0.6299212598425197
        },
        {
          "duration": 0.512387822916665,
          "durationTicks": 455,
          "midi": 64,
          "name": "E4",
          "ticks": 58320,
          "time": 65.67573150000001,
          "velocity": 0.6299212598425197
        },
        {
          "duration": 0.512387822916665,
          "durationTicks": 455,
          "midi": 76,
          "name": "E5",
          "ticks": 58320,
          "time": 65.67573150000001,
          "velocity": 0.6299212598425197
        },
        {
          "duration": 0.25563084791666313,
          "durationTicks": 227,
          "midi": 65,
          "name": "F4",
          "ticks": 58800,
          "time": 66.2162725,
          "velocity": 0.6299212598425197
        },
        {
          "duration": 0.25563084791666313,
          "durationTicks": 227,
          "midi": 77,
          "name": "F5",
          "ticks": 58800,
          "time": 66.2162725,
          "velocity": 0.6299212598425197
        },
        {
          "duration": 0.25563084791666313,
          "durationTicks": 227,
          "midi": 64,
          "name": "E4",
          "ticks": 59040,
          "time": 66.48654300000001,
          "velocity": 0.6299212598425197
        },
        {
          "duration": 0.25563084791666313,
          "durationTicks": 227,
          "midi": 76,
          "name": "E5",
          "ticks": 59040,
          "time": 66.48654300000001,
          "velocity": 0.6299212598425197
        },
        {
          "duration": 0.25563084791666313,
          "durationTicks": 227,
          "midi": 62,
          "name": "D4",
          "ticks": 59280,
          "time": 66.7568135,
          "velocity": 0.6299212598425197
        },
        {
          "duration": 0.25563084791666313,
          "durationTicks": 227,
          "midi": 74,
          "name": "D5",
          "ticks": 59280,
          "time": 66.7568135,
          "velocity": 0.6299212598425197
        },
        {
          "duration": 1.0259017729166686,
          "durationTicks": 911,
          "midi": 60,
          "name": "C4",
          "ticks": 59520,
          "time": 67.027084,
          "velocity": 0.6299212598425197
        },
        {
          "duration": 1.0259017729166686,
          "durationTicks": 911,
          "midi": 72,
          "name": "C5",
          "ticks": 59520,
          "time": 67.027084,
          "velocity": 0.6299212598425197
        },
        {
          "duration": 0.512387822916665,
          "durationTicks": 455,
          "midi": 62,
          "name": "D4",
          "ticks": 60480,
          "time": 68.10816600000001,
          "velocity": 0.6299212598425197
        },
        {
          "duration": 0.512387822916665,
          "durationTicks": 455,
          "midi": 74,
          "name": "D5",
          "ticks": 60480,
          "time": 68.10816600000001,
          "velocity": 0.6299212598425197
        },
        {
          "duration": 0.25563084791666313,
          "durationTicks": 227,
          "midi": 64,
          "name": "E4",
          "ticks": 60960,
          "time": 68.648707,
          "velocity": 0.6299212598425197
        },
        {
          "duration": 0.25563084791666313,
          "durationTicks": 227,
          "midi": 76,
          "name": "E5",
          "ticks": 60960,
          "time": 68.648707,
          "velocity": 0.6299212598425197
        },
        {
          "duration": 0.5123878229166507,
          "durationTicks": 455,
          "midi": 62,
          "name": "D4",
          "ticks": 61200,
          "time": 68.91897750000001,
          "velocity": 0.6299212598425197
        },
        {
          "duration": 0.5123878229166507,
          "durationTicks": 455,
          "midi": 74,
          "name": "D5",
          "ticks": 61200,
          "time": 68.91897750000001,
          "velocity": 0.6299212598425197
        },
        {
          "duration": 0.25563084791666313,
          "durationTicks": 227,
          "midi": 64,
          "name": "E4",
          "ticks": 61680,
          "time": 69.4595185,
          "velocity": 0.6299212598425197
        },
        {
          "duration": 0.25563084791666313,
          "durationTicks": 227,
          "midi": 76,
          "name": "E5",
          "ticks": 61680,
          "time": 69.4595185,
          "velocity": 0.6299212598425197
        },
        {
          "duration": 0.25563084791666313,
          "durationTicks": 227,
          "midi": 62,
          "name": "D4",
          "ticks": 61920,
          "time": 69.72978900000001,
          "velocity": 0.6299212598425197
        },
        {
          "duration": 0.25563084791666313,
          "durationTicks": 227,
          "midi": 74,
          "name": "D5",
          "ticks": 61920,
          "time": 69.72978900000001,
          "velocity": 0.6299212598425197
        },
        {
          "duration": 0.25563084791666313,
          "durationTicks": 227,
          "midi": 60,
          "name": "C4",
          "ticks": 62160,
          "time": 70.0000595,
          "velocity": 0.6299212598425197
        },
        {
          "duration": 0.25563084791666313,
          "durationTicks": 227,
          "midi": 72,
          "name": "C5",
          "ticks": 62160,
          "time": 70.0000595,
          "velocity": 0.6299212598425197
        },
        {
          "duration": 1.0259017729166828,
          "durationTicks": 911,
          "midi": 55,
          "name": "G3",
          "ticks": 62400,
          "time": 70.27033,
          "velocity": 0.6299212598425197
        },
        {
          "duration": 1.0259017729166828,
          "durationTicks": 911,
          "midi": 67,
          "name": "G4",
          "ticks": 62400,
          "time": 70.27033,
          "velocity": 0.6299212598425197
        },
        {
          "duration": 0.5123878229166507,
          "durationTicks": 455,
          "midi": 62,
          "name": "D4",
          "ticks": 63360,
          "time": 71.35141200000001,
          "velocity": 0.6299212598425197
        },
        {
          "duration": 0.5123878229166507,
          "durationTicks": 455,
          "midi": 74,
          "name": "D5",
          "ticks": 63360,
          "time": 71.35141200000001,
          "velocity": 0.6299212598425197
        },
        {
          "duration": 0.25563084791667734,
          "durationTicks": 227,
          "midi": 64,
          "name": "E4",
          "ticks": 63840,
          "time": 71.891953,
          "velocity": 0.6299212598425197
        },
        {
          "duration": 0.25563084791667734,
          "durationTicks": 227,
          "midi": 76,
          "name": "E5",
          "ticks": 63840,
          "time": 71.891953,
          "velocity": 0.6299212598425197
        },
        {
          "duration": 0.512387822916665,
          "durationTicks": 455,
          "midi": 62,
          "name": "D4",
          "ticks": 64080,
          "time": 72.16222350000001,
          "velocity": 0.6299212598425197
        },
        {
          "duration": 0.512387822916665,
          "durationTicks": 455,
          "midi": 74,
          "name": "D5",
          "ticks": 64080,
          "time": 72.16222350000001,
          "velocity": 0.6299212598425197
        },
        {
          "duration": 0.25563084791667734,
          "durationTicks": 227,
          "midi": 64,
          "name": "E4",
          "ticks": 64560,
          "time": 72.7027645,
          "velocity": 0.6299212598425197
        },
        {
          "duration": 0.25563084791667734,
          "durationTicks": 227,
          "midi": 76,
          "name": "E5",
          "ticks": 64560,
          "time": 72.7027645,
          "velocity": 0.6299212598425197
        },
        {
          "duration": 0.25563084791666313,
          "durationTicks": 227,
          "midi": 62,
          "name": "D4",
          "ticks": 64800,
          "time": 72.97303500000001,
          "velocity": 0.6299212598425197
        },
        {
          "duration": 0.25563084791666313,
          "durationTicks": 227,
          "midi": 74,
          "name": "D5",
          "ticks": 64800,
          "time": 72.97303500000001,
          "velocity": 0.6299212598425197
        },
        {
          "duration": 0.25563084791666313,
          "durationTicks": 227,
          "midi": 64,
          "name": "E4",
          "ticks": 65040,
          "time": 73.2433055,
          "velocity": 0.6299212598425197
        },
        {
          "duration": 0.25563084791666313,
          "durationTicks": 227,
          "midi": 76,
          "name": "E5",
          "ticks": 65040,
          "time": 73.2433055,
          "velocity": 0.6299212598425197
        },
        {
          "duration": 0.769144797916681,
          "durationTicks": 683,
          "midi": 67,
          "name": "G4",
          "ticks": 65280,
          "time": 73.513576,
          "velocity": 0.6299212598425197
        },
        {
          "duration": 0.769144797916681,
          "durationTicks": 683,
          "midi": 79,
          "name": "G5",
          "ticks": 65280,
          "time": 73.513576,
          "velocity": 0.6299212598425197
        },
        {
          "duration": 0.25563084791667734,
          "durationTicks": 227,
          "midi": 65,
          "name": "F4",
          "ticks": 66000,
          "time": 74.3243875,
          "velocity": 0.6299212598425197
        },
        {
          "duration": 0.25563084791667734,
          "durationTicks": 227,
          "midi": 77,
          "name": "F5",
          "ticks": 66000,
          "time": 74.3243875,
          "velocity": 0.6299212598425197
        },
        {
          "duration": 3.079957572916655,
          "durationTicks": 2735,
          "midi": 64,
          "name": "E4",
          "ticks": 66240,
          "time": 74.59465800000001,
          "velocity": 0.6299212598425197
        },
        {
          "duration": 3.079957572916655,
          "durationTicks": 2735,
          "midi": 76,
          "name": "E5",
          "ticks": 66240,
          "time": 74.59465800000001,
          "velocity": 0.6299212598425197
        },
        {
          "duration": 0.512387822916665,
          "durationTicks": 455,
          "midi": 64,
          "name": "E4",
          "ticks": 69120,
          "time": 77.83790400000001,
          "velocity": 0.6299212598425197
        },
        {
          "duration": 0.512387822916665,
          "durationTicks": 455,
          "midi": 76,
          "name": "E5",
          "ticks": 69120,
          "time": 77.83790400000001,
          "velocity": 0.6299212598425197
        },
        {
          "duration": 0.25563084791666313,
          "durationTicks": 227,
          "midi": 65,
          "name": "F4",
          "ticks": 69600,
          "time": 78.37844500000001,
          "velocity": 0.6299212598425197
        },
        {
          "duration": 0.25563084791666313,
          "durationTicks": 227,
          "midi": 77,
          "name": "F5",
          "ticks": 69600,
          "time": 78.37844500000001,
          "velocity": 0.6299212598425197
        },
        {
          "duration": 0.512387822916665,
          "durationTicks": 455,
          "midi": 64,
          "name": "E4",
          "ticks": 69840,
          "time": 78.64871550000001,
          "velocity": 0.6299212598425197
        },
        {
          "duration": 0.512387822916665,
          "durationTicks": 455,
          "midi": 76,
          "name": "E5",
          "ticks": 69840,
          "time": 78.64871550000001,
          "velocity": 0.6299212598425197
        },
        {
          "duration": 0.25563084791666313,
          "durationTicks": 227,
          "midi": 65,
          "name": "F4",
          "ticks": 70320,
          "time": 79.18925650000001,
          "velocity": 0.6299212598425197
        },
        {
          "duration": 0.25563084791666313,
          "durationTicks": 227,
          "midi": 77,
          "name": "F5",
          "ticks": 70320,
          "time": 79.18925650000001,
          "velocity": 0.6299212598425197
        },
        {
          "duration": 0.25563084791666313,
          "durationTicks": 227,
          "midi": 64,
          "name": "E4",
          "ticks": 70560,
          "time": 79.45952700000001,
          "velocity": 0.6299212598425197
        },
        {
          "duration": 0.25563084791666313,
          "durationTicks": 227,
          "midi": 76,
          "name": "E5",
          "ticks": 70560,
          "time": 79.45952700000001,
          "velocity": 0.6299212598425197
        },
        {
          "duration": 0.25563084791666313,
          "durationTicks": 227,
          "midi": 65,
          "name": "F4",
          "ticks": 70800,
          "time": 79.7297975,
          "velocity": 0.6299212598425197
        },
        {
          "duration": 0.25563084791666313,
          "durationTicks": 227,
          "midi": 77,
          "name": "F5",
          "ticks": 70800,
          "time": 79.7297975,
          "velocity": 0.6299212598425197
        },
        {
          "duration": 1.0259017729166686,
          "durationTicks": 911,
          "midi": 69,
          "name": "A4",
          "ticks": 71040,
          "time": 80.00006800000001,
          "velocity": 0.6299212598425197
        },
        {
          "duration": 1.0259017729166686,
          "durationTicks": 911,
          "midi": 81,
          "name": "A5",
          "ticks": 71040,
          "time": 80.00006800000001,
          "velocity": 0.6299212598425197
        },
        {
          "duration": 0.512387822916665,
          "durationTicks": 455,
          "midi": 72,
          "name": "C5",
          "ticks": 72000,
          "time": 81.08115000000001,
          "velocity": 0.6299212598425197
        },
        {
          "duration": 0.512387822916665,
          "durationTicks": 455,
          "midi": 84,
          "name": "C6",
          "ticks": 72000,
          "time": 81.08115000000001,
          "velocity": 0.6299212598425197
        },
        {
          "duration": 0.25563084791666313,
          "durationTicks": 227,
          "midi": 72,
          "name": "C5",
          "ticks": 72480,
          "time": 81.62169100000001,
          "velocity": 0.6299212598425197
        },
        {
          "duration": 0.25563084791666313,
          "durationTicks": 227,
          "midi": 84,
          "name": "C6",
          "ticks": 72480,
          "time": 81.62169100000001,
          "velocity": 0.6299212598425197
        },
        {
          "duration": 0.512387822916665,
          "durationTicks": 455,
          "midi": 71,
          "name": "B4",
          "ticks": 72720,
          "time": 81.89196150000001,
          "velocity": 0.6299212598425197
        },
        {
          "duration": 0.512387822916665,
          "durationTicks": 455,
          "midi": 83,
          "name": "B5",
          "ticks": 72720,
          "time": 81.89196150000001,
          "velocity": 0.6299212598425197
        },
        {
          "duration": 0.25563084791666313,
          "durationTicks": 227,
          "midi": 72,
          "name": "C5",
          "ticks": 73200,
          "time": 82.43250250000001,
          "velocity": 0.6299212598425197
        },
        {
          "duration": 0.25563084791666313,
          "durationTicks": 227,
          "midi": 84,
          "name": "C6",
          "ticks": 73200,
          "time": 82.43250250000001,
          "velocity": 0.6299212598425197
        },
        {
          "duration": 0.25563084791666313,
          "durationTicks": 227,
          "midi": 71,
          "name": "B4",
          "ticks": 73440,
          "time": 82.70277300000001,
          "velocity": 0.6299212598425197
        },
        {
          "duration": 0.25563084791666313,
          "durationTicks": 227,
          "midi": 83,
          "name": "B5",
          "ticks": 73440,
          "time": 82.70277300000001,
          "velocity": 0.6299212598425197
        },
        {
          "duration": 0.25563084791666313,
          "durationTicks": 227,
          "midi": 69,
          "name": "A4",
          "ticks": 73680,
          "time": 82.9730435,
          "velocity": 0.6299212598425197
        },
        {
          "duration": 0.25563084791666313,
          "durationTicks": 227,
          "midi": 81,
          "name": "A5",
          "ticks": 73680,
          "time": 82.9730435,
          "velocity": 0.6299212598425197
        },
        {
          "duration": 1.0259017729166686,
          "durationTicks": 911,
          "midi": 64,
          "name": "E4",
          "ticks": 73920,
          "time": 83.24331400000001,
          "velocity": 0.6299212598425197
        },
        {
          "duration": 1.0259017729166686,
          "durationTicks": 911,
          "midi": 76,
          "name": "E5",
          "ticks": 73920,
          "time": 83.24331400000001,
          "velocity": 0.6299212598425197
        },
        {
          "duration": 0.12725236041667642,
          "durationTicks": 113,
          "midi": 65,
          "name": "F4",
          "ticks": 75000,
          "time": 84.45953125000001,
          "velocity": 0.6299212598425197
        },
        {
          "duration": 0.12725236041667642,
          "durationTicks": 113,
          "midi": 70,
          "name": "A#4",
          "ticks": 75120,
          "time": 84.5946665,
          "velocity": 0.6299212598425197
        },
        {
          "duration": 0.12725236041667642,
          "durationTicks": 113,
          "midi": 72,
          "name": "C5",
          "ticks": 75240,
          "time": 84.72980175000001,
          "velocity": 0.6299212598425197
        },
        {
          "duration": 0.25563084791666313,
          "durationTicks": 227,
          "midi": 74,
          "name": "D5",
          "ticks": 75360,
          "time": 84.86493700000001,
          "velocity": 0.6299212598425197
        },
        {
          "duration": 0.12725236041667642,
          "durationTicks": 113,
          "midi": 64,
          "name": "E4",
          "ticks": 75720,
          "time": 85.27034275000001,
          "velocity": 0.6299212598425197
        },
        {
          "duration": 0.12725236041667642,
          "durationTicks": 113,
          "midi": 69,
          "name": "A4",
          "ticks": 75840,
          "time": 85.405478,
          "velocity": 0.6299212598425197
        },
        {
          "duration": 0.12725236041667642,
          "durationTicks": 113,
          "midi": 70,
          "name": "A#4",
          "ticks": 75960,
          "time": 85.54061325,
          "velocity": 0.6299212598425197
        },
        {
          "duration": 0.25563084791666313,
          "durationTicks": 227,
          "midi": 72,
          "name": "C5",
          "ticks": 76080,
          "time": 85.67574850000001,
          "velocity": 0.6299212598425197
        },
        {
          "duration": 0.12725236041667642,
          "durationTicks": 113,
          "midi": 64,
          "name": "E4",
          "ticks": 76440,
          "time": 86.08115425000001,
          "velocity": 0.6299212598425197
        },
        {
          "duration": 0.12725236041667642,
          "durationTicks": 113,
          "midi": 68,
          "name": "G#4",
          "ticks": 76560,
          "time": 86.2162895,
          "velocity": 0.6299212598425197
        },
        {
          "duration": 0.12725236041667642,
          "durationTicks": 113,
          "midi": 70,
          "name": "A#4",
          "ticks": 76680,
          "time": 86.35142475,
          "velocity": 0.6299212598425197
        },
        {
          "duration": 0.25563084791666313,
          "durationTicks": 227,
          "midi": 72,
          "name": "C5",
          "ticks": 76800,
          "time": 86.48656000000001,
          "velocity": 0.6299212598425197
        },
        {
          "duration": 0.12725236041667642,
          "durationTicks": 113,
          "midi": 64,
          "name": "E4",
          "ticks": 77160,
          "time": 86.89196575000001,
          "velocity": 0.6299212598425197
        },
        {
          "duration": 0.12725236041667642,
          "durationTicks": 113,
          "midi": 67,
          "name": "G4",
          "ticks": 77280,
          "time": 87.027101,
          "velocity": 0.6299212598425197
        },
        {
          "duration": 0.12725236041667642,
          "durationTicks": 113,
          "midi": 68,
          "name": "G#4",
          "ticks": 77400,
          "time": 87.16223625,
          "velocity": 0.6299212598425197
        },
        {
          "duration": 0.25563084791666313,
          "durationTicks": 227,
          "midi": 70,
          "name": "A#4",
          "ticks": 77520,
          "time": 87.29737150000001,
          "velocity": 0.6299212598425197
        }
      ],
      "endOfTrackTicks": 77748
    },
    {
      "channel": 0,
      "controlChanges": {},
      "pitchBends": [],
      "instrument": {
        "family": "piano",
        "name": "acoustic grand piano",
        "number": 0
      },
      "name": "",
      "notes": [
        {
          "duration": 3.0799575729166673,
          "durationTicks": 2735,
          "midi": 33,
          "name": "A1",
          "ticks": 0,
          "time": 0,
          "velocity": 0.6299212598425197
        },
        {
          "duration": 3.0799575729166673,
          "durationTicks": 2735,
          "midi": 45,
          "name": "A2",
          "ticks": 0,
          "time": 0,
          "velocity": 0.6299212598425197
        },
        {
          "duration": 3.0799575729166673,
          "durationTicks": 2735,
          "midi": 29,
          "name": "F1",
          "ticks": 2880,
          "time": 3.243246,
          "velocity": 0.6299212598425197
        },
        {
          "duration": 3.0799575729166673,
          "durationTicks": 2735,
          "midi": 41,
          "name": "F2",
          "ticks": 2880,
          "time": 3.243246,
          "velocity": 0.6299212598425197
        },
        {
          "duration": 0.2556308479166667,
          "durationTicks": 227,
          "midi": 33,
          "name": "A1",
          "ticks": 5760,
          "time": 6.486492,
          "velocity": 0.6299212598425197
        },
        {
          "duration": 0.2556308479166667,
          "durationTicks": 227,
          "midi": 40,
          "name": "E2",
          "ticks": 6000,
          "time": 6.756762500000001,
          "velocity": 0.6299212598425197
        },
        {
          "duration": 0.2556308479166667,
          "durationTicks": 227,
          "midi": 45,
          "name": "A2",
          "ticks": 6240,
          "time": 7.027033,
          "velocity": 0.6299212598425197
        },
        {
          "duration": 0.2556308479166667,
          "durationTicks": 227,
          "midi": 33,
          "name": "A1",
          "ticks": 6480,
          "time": 7.297303500000001,
          "velocity": 0.6299212598425197
        },
        {
          "duration": 0.2556308479166667,
          "durationTicks": 227,
          "midi": 40,
          "name": "E2",
          "ticks": 6720,
          "time": 7.5675740000000005,
          "velocity": 0.6299212598425197
        },
        {
          "duration": 0.2556308479166667,
          "durationTicks": 227,
          "midi": 45,
          "name": "A2",
          "ticks": 6960,
          "time": 7.837844500000001,
          "velocity": 0.6299212598425197
        },
        {
          "duration": 0.2556308479166649,
          "durationTicks": 227,
          "midi": 33,
          "name": "A1",
          "ticks": 7200,
          "time": 8.108115000000002,
          "velocity": 0.6299212598425197
        },
        {
          "duration": 0.2556308479166667,
          "durationTicks": 227,
          "midi": 40,
          "name": "E2",
          "ticks": 7440,
          "time": 8.3783855,
          "velocity": 0.6299212598425197
        },
        {
          "duration": 0.2556308479166667,
          "durationTicks": 227,
          "midi": 45,
          "name": "A2",
          "ticks": 7680,
          "time": 8.648656,
          "velocity": 0.6299212598425197
        },
        {
          "duration": 0.2556308479166667,
          "durationTicks": 227,
          "midi": 33,
          "name": "A1",
          "ticks": 7920,
          "time": 8.918926500000001,
          "velocity": 0.6299212598425197
        },
        {
          "duration": 0.2556308479166667,
          "durationTicks": 227,
          "midi": 40,
          "name": "E2",
          "ticks": 8160,
          "time": 9.189197,
          "velocity": 0.6299212598425197
        },
        {
          "duration": 0.2556308479166667,
          "durationTicks": 227,
          "midi": 45,
          "name": "A2",
          "ticks": 8400,
          "time": 9.4594675,
          "velocity": 0.6299212598425197
        },
        {
          "duration": 0.2556308479166667,
          "durationTicks": 227,
          "midi": 41,
          "name": "F2",
          "ticks": 8640,
          "time": 9.729738000000001,
          "velocity": 0.6299212598425197
        },
        {
          "duration": 0.2556308479166667,
          "durationTicks": 227,
          "midi": 48,
          "name": "C3",
          "ticks": 8880,
          "time": 10.000008500000002,
          "velocity": 0.6299212598425197
        },
        {
          "duration": 0.2556308479166667,
          "durationTicks": 227,
          "midi": 53,
          "name": "F3",
          "ticks": 9120,
          "time": 10.270279,
          "velocity": 0.6299212598425197
        },
        {
          "duration": 0.2556308479166667,
          "durationTicks": 227,
          "midi": 41,
          "name": "F2",
          "ticks": 9360,
          "time": 10.540549500000001,
          "velocity": 0.6299212598425197
        },
        {
          "duration": 0.2556308479166667,
          "durationTicks": 227,
          "midi": 48,
          "name": "C3",
          "ticks": 9600,
          "time": 10.810820000000001,
          "velocity": 0.6299212598425197
        },
        {
          "duration": 0.2556308479166667,
          "durationTicks": 227,
          "midi": 53,
          "name": "F3",
          "ticks": 9840,
          "time": 11.0810905,
          "velocity": 0.6299212598425197
        },
        {
          "duration": 0.2556308479166667,
          "durationTicks": 227,
          "midi": 41,
          "name": "F2",
          "ticks": 10080,
          "time": 11.351361,
          "velocity": 0.6299212598425197
        },
        {
          "duration": 0.2556308479166667,
          "durationTicks": 227,
          "midi": 48,
          "name": "C3",
          "ticks": 10320,
          "time": 11.621631500000001,
          "velocity": 0.6299212598425197
        },
        {
          "duration": 0.2556308479166667,
          "durationTicks": 227,
          "midi": 53,
          "name": "F3",
          "ticks": 10560,
          "time": 11.891902000000002,
          "velocity": 0.6299212598425197
        },
        {
          "duration": 0.2556308479166667,
          "durationTicks": 227,
          "midi": 41,
          "name": "F2",
          "ticks": 10800,
          "time": 12.1621725,
          "velocity": 0.6299212598425197
        },
        {
          "duration": 0.2556308479166667,
          "durationTicks": 227,
          "midi": 48,
          "name": "C3",
          "ticks": 11040,
          "time": 12.432443000000001,
          "velocity": 0.6299212598425197
        },
        {
          "duration": 0.2556308479166667,
          "durationTicks": 227,
          "midi": 53,
          "name": "F3",
          "ticks": 11280,
          "time": 12.702713500000002,
          "velocity": 0.6299212598425197
        },
        {
          "duration": 0.2556308479166667,
          "durationTicks": 227,
          "midi": 33,
          "name": "A1",
          "ticks": 11520,
          "time": 12.972984,
          "velocity": 0.6299212598425197
        },
        {
          "duration": 0.2556308479166667,
          "durationTicks": 227,
          "midi": 40,
          "name": "E2",
          "ticks": 11760,
          "time": 13.2432545,
          "velocity": 0.6299212598425197
        },
        {
          "duration": 0.2556308479166667,
          "durationTicks": 227,
          "midi": 45,
          "name": "A2",
          "ticks": 12000,
          "time": 13.513525000000001,
          "velocity": 0.6299212598425197
        },
        {
          "duration": 0.2556308479166667,
          "durationTicks": 227,
          "midi": 33,
          "name": "A1",
          "ticks": 12240,
          "time": 13.783795500000002,
          "velocity": 0.6299212598425197
        },
        {
          "duration": 0.2556308479166667,
          "durationTicks": 227,
          "midi": 40,
          "name": "E2",
          "ticks": 12480,
          "time": 14.054066,
          "velocity": 0.6299212598425197
        },
        {
          "duration": 0.2556308479166667,
          "durationTicks": 227,
          "midi": 45,
          "name": "A2",
          "ticks": 12720,
          "time": 14.324336500000001,
          "velocity": 0.6299212598425197
        },
        {
          "duration": 0.2556308479166667,
          "durationTicks": 227,
          "midi": 33,
          "name": "A1",
          "ticks": 12960,
          "time": 14.594607000000002,
          "velocity": 0.6299212598425197
        },
        {
          "duration": 0.2556308479166649,
          "durationTicks": 227,
          "midi": 40,
          "name": "E2",
          "ticks": 13200,
          "time": 14.864877500000002,
          "velocity": 0.6299212598425197
        },
        {
          "duration": 0.2556308479166667,
          "durationTicks": 227,
          "midi": 45,
          "name": "A2",
          "ticks": 13440,
          "time": 15.135148000000001,
          "velocity": 0.6299212598425197
        },
        {
          "duration": 0.2556308479166667,
          "durationTicks": 227,
          "midi": 33,
          "name": "A1",
          "ticks": 13680,
          "time": 15.405418500000001,
          "velocity": 0.6299212598425197
        },
        {
          "duration": 0.2556308479166667,
          "durationTicks": 227,
          "midi": 40,
          "name": "E2",
          "ticks": 13920,
          "time": 15.675689000000002,
          "velocity": 0.6299212598425197
        },
        {
          "duration": 0.2556308479166667,
          "durationTicks": 227,
          "midi": 45,
          "name": "A2",
          "ticks": 14160,
          "time": 15.9459595,
          "velocity": 0.6299212598425197
        },
        {
          "duration": 0.2556308479166667,
          "durationTicks": 227,
          "midi": 41,
          "name": "F2",
          "ticks": 14400,
          "time": 16.216230000000003,
          "velocity": 0.6299212598425197
        },
        {
          "duration": 0.2556308479166667,
          "durationTicks": 227,
          "midi": 48,
          "name": "C3",
          "ticks": 14640,
          "time": 16.486500500000002,
          "velocity": 0.6299212598425197
        },
        {
          "duration": 0.2556308479166667,
          "durationTicks": 227,
          "midi": 53,
          "name": "F3",
          "ticks": 14880,
          "time": 16.756771,
          "velocity": 0.6299212598425197
        },
        {
          "duration": 0.2556308479166667,
          "durationTicks": 227,
          "midi": 41,
          "name": "F2",
          "ticks": 15120,
          "time": 17.027041500000003,
          "velocity": 0.6299212598425197
        },
        {
          "duration": 0.25563084791667023,
          "durationTicks": 227,
          "midi": 48,
          "name": "C3",
          "ticks": 15360,
          "time": 17.297312,
          "velocity": 0.6299212598425197
        },
        {
          "duration": 0.25563084791667023,
          "durationTicks": 227,
          "midi": 53,
          "name": "F3",
          "ticks": 15600,
          "time": 17.5675825,
          "velocity": 0.6299212598425197
        },
        {
          "duration": 0.2556308479166667,
          "durationTicks": 227,
          "midi": 41,
          "name": "F2",
          "ticks": 15840,
          "time": 17.837853000000003,
          "velocity": 0.6299212598425197
        },
        {
          "duration": 0.25563084791667023,
          "durationTicks": 227,
          "midi": 48,
          "name": "C3",
          "ticks": 16080,
          "time": 18.1081235,
          "velocity": 0.6299212598425197
        },
        {
          "duration": 0.25563084791667023,
          "durationTicks": 227,
          "midi": 53,
          "name": "F3",
          "ticks": 16320,
          "time": 18.378394,
          "velocity": 0.6299212598425197
        },
        {
          "duration": 0.2556308479166667,
          "durationTicks": 227,
          "midi": 41,
          "name": "F2",
          "ticks": 16560,
          "time": 18.648664500000002,
          "velocity": 0.6299212598425197
        },
        {
          "duration": 0.25563084791667023,
          "durationTicks": 227,
          "midi": 48,
          "name": "C3",
          "ticks": 16800,
          "time": 18.918935,
          "velocity": 0.6299212598425197
        },
        {
          "duration": 0.2556308479166667,
          "durationTicks": 227,
          "midi": 53,
          "name": "F3",
          "ticks": 17040,
          "time": 19.189205500000003,
          "velocity": 0.6299212598425197
        },
        {
          "duration": 0.2556308479166667,
          "durationTicks": 227,
          "midi": 33,
          "name": "A1",
          "ticks": 17280,
          "time": 19.459476000000002,
          "velocity": 0.6299212598425197
        },
        {
          "duration": 0.25563084791667023,
          "durationTicks": 227,
          "midi": 40,
          "name": "E2",
          "ticks": 17520,
          "time": 19.7297465,
          "velocity": 0.6299212598425197
        },
        {
          "duration": 0.2556308479166667,
          "durationTicks": 227,
          "midi": 45,
          "name": "A2",
          "ticks": 17760,
          "time": 20.000017000000003,
          "velocity": 0.6299212598425197
        },
        {
          "duration": 0.2556308479166667,
          "durationTicks": 227,
          "midi": 33,
          "name": "A1",
          "ticks": 18000,
          "time": 20.270287500000002,
          "velocity": 0.6299212598425197
        },
        {
          "duration": 0.25563084791667023,
          "durationTicks": 227,
          "midi": 40,
          "name": "E2",
          "ticks": 18240,
          "time": 20.540558,
          "velocity": 0.6299212598425197
        },
        {
          "duration": 0.2556308479166667,
          "durationTicks": 227,
          "midi": 45,
          "name": "A2",
          "ticks": 18480,
          "time": 20.810828500000003,
          "velocity": 0.6299212598425197
        },
        {
          "duration": 0.25563084791667023,
          "durationTicks": 227,
          "midi": 33,
          "name": "A1",
          "ticks": 18720,
          "time": 21.081099000000002,
          "velocity": 0.6299212598425197
        },
        {
          "duration": 0.25563084791667023,
          "durationTicks": 227,
          "midi": 40,
          "name": "E2",
          "ticks": 18960,
          "time": 21.3513695,
          "velocity": 0.6299212598425197
        },
        {
          "duration": 0.2556308479166667,
          "durationTicks": 227,
          "midi": 45,
          "name": "A2",
          "ticks": 19200,
          "time": 21.621640000000003,
          "velocity": 0.6299212598425197
        },
        {
          "duration": 0.25563084791667023,
          "durationTicks": 227,
          "midi": 33,
          "name": "A1",
          "ticks": 19440,
          "time": 21.8919105,
          "velocity": 0.6299212598425197
        },
        {
          "duration": 0.25563084791667023,
          "durationTicks": 227,
          "midi": 40,
          "name": "E2",
          "ticks": 19680,
          "time": 22.162181,
          "velocity": 0.6299212598425197
        },
        {
          "duration": 0.2556308479166667,
          "durationTicks": 227,
          "midi": 45,
          "name": "A2",
          "ticks": 19920,
          "time": 22.432451500000003,
          "velocity": 0.6299212598425197
        },
        {
          "duration": 0.25563084791667023,
          "durationTicks": 227,
          "midi": 40,
          "name": "E2",
          "ticks": 20160,
          "time": 22.702722,
          "velocity": 0.6299212598425197
        },
        {
          "duration": 0.2556308479166667,
          "durationTicks": 227,
          "midi": 47,
          "name": "B2",
          "ticks": 20400,
          "time": 22.972992500000004,
          "velocity": 0.6299212598425197
        },
        {
          "duration": 0.2556308479166667,
          "durationTicks": 227,
          "midi": 52,
          "name": "E3",
          "ticks": 20640,
          "time": 23.243263000000002,
          "velocity": 0.6299212598425197
        },
        {
          "duration": 0.25563084791667023,
          "durationTicks": 227,
          "midi": 40,
          "name": "E2",
          "ticks": 20880,
          "time": 23.5135335,
          "velocity": 0.6299212598425197
        },
        {
          "duration": 0.2556308479166667,
          "durationTicks": 227,
          "midi": 47,
          "name": "B2",
          "ticks": 21120,
          "time": 23.783804000000003,
          "velocity": 0.6299212598425197
        },
        {
          "duration": 0.2556308479166667,
          "durationTicks": 227,
          "midi": 52,
          "name": "E3",
          "ticks": 21360,
          "time": 24.054074500000002,
          "velocity": 0.6299212598425197
        },
        {
          "duration": 0.25563084791667023,
          "durationTicks": 227,
          "midi": 40,
          "name": "E2",
          "ticks": 21600,
          "time": 24.324345,
          "velocity": 0.6299212598425197
        },
        {
          "duration": 0.2556308479166667,
          "durationTicks": 227,
          "midi": 47,
          "name": "B2",
          "ticks": 21840,
          "time": 24.594615500000003,
          "velocity": 0.6299212598425197
        },
        {
          "duration": 0.25563084791667023,
          "durationTicks": 227,
          "midi": 52,
          "name": "E3",
          "ticks": 22080,
          "time": 24.864886000000002,
          "velocity": 0.6299212598425197
        },
        {
          "duration": 0.25563084791667023,
          "durationTicks": 227,
          "midi": 40,
          "name": "E2",
          "ticks": 22320,
          "time": 25.1351565,
          "velocity": 0.6299212598425197
        },
        {
          "duration": 0.2556308479166667,
          "durationTicks": 227,
          "midi": 47,
          "name": "B2",
          "ticks": 22560,
          "time": 25.405427000000003,
          "velocity": 0.6299212598425197
        },
        {
          "duration": 0.25563084791667023,
          "durationTicks": 227,
          "midi": 52,
          "name": "E3",
          "ticks": 22800,
          "time": 25.675697500000002,
          "velocity": 0.6299212598425197
        },
        {
          "duration": 0.25563084791667023,
          "durationTicks": 227,
          "midi": 34,
          "name": "A#1",
          "ticks": 23040,
          "time": 25.945968,
          "velocity": 0.6299212598425197
        },
        {
          "duration": 0.2556308479166667,
          "durationTicks": 227,
          "midi": 41,
          "name": "F2",
          "ticks": 23280,
          "time": 26.216238500000003,
          "velocity": 0.6299212598425197
        },
        {
          "duration": 0.25563084791667023,
          "durationTicks": 227,
          "midi": 46,
          "name": "A#2",
          "ticks": 23520,
          "time": 26.486509,
          "velocity": 0.6299212598425197
        },
        {
          "duration": 0.2556308479166667,
          "durationTicks": 227,
          "midi": 34,
          "name": "A#1",
          "ticks": 23760,
          "time": 26.756779500000004,
          "velocity": 0.6299212598425197
        },
        {
          "duration": 0.2556308479166667,
          "durationTicks": 227,
          "midi": 41,
          "name": "F2",
          "ticks": 24000,
          "time": 27.027050000000003,
          "velocity": 0.6299212598425197
        },
        {
          "duration": 0.25563084791667023,
          "durationTicks": 227,
          "midi": 46,
          "name": "A#2",
          "ticks": 24240,
          "time": 27.2973205,
          "velocity": 0.6299212598425197
        },
        {
          "duration": 0.2556308479166667,
          "durationTicks": 227,
          "midi": 34,
          "name": "A#1",
          "ticks": 24480,
          "time": 27.567591000000004,
          "velocity": 0.6299212598425197
        },
        {
          "duration": 0.25563084791667023,
          "durationTicks": 227,
          "midi": 41,
          "name": "F2",
          "ticks": 24720,
          "time": 27.837861500000002,
          "velocity": 0.6299212598425197
        },
        {
          "duration": 0.25563084791667023,
          "durationTicks": 227,
          "midi": 46,
          "name": "A#2",
          "ticks": 24960,
          "time": 28.108132,
          "velocity": 0.6299212598425197
        },
        {
          "duration": 0.2556308479166667,
          "durationTicks": 227,
          "midi": 34,
          "name": "A#1",
          "ticks": 25200,
          "time": 28.378402500000004,
          "velocity": 0.6299212598425197
        },
        {
          "duration": 0.25563084791667023,
          "durationTicks": 227,
          "midi": 41,
          "name": "F2",
          "ticks": 25440,
          "time": 28.648673000000002,
          "velocity": 0.6299212598425197
        },
        {
          "duration": 0.25563084791667023,
          "durationTicks": 227,
          "midi": 46,
          "name": "A#2",
          "ticks": 25680,
          "time": 28.9189435,
          "velocity": 0.6299212598425197
        },
        {
          "duration": 0.2556308479166667,
          "durationTicks": 227,
          "midi": 33,
          "name": "A1",
          "ticks": 25920,
          "time": 29.189214000000003,
          "velocity": 0.6299212598425197
        },
        {
          "duration": 0.25563084791667023,
          "durationTicks": 227,
          "midi": 40,
          "name": "E2",
          "ticks": 26160,
          "time": 29.459484500000002,
          "velocity": 0.6299212598425197
        },
        {
          "duration": 0.2556308479166667,
          "durationTicks": 227,
          "midi": 45,
          "name": "A2",
          "ticks": 26400,
          "time": 29.729755000000004,
          "velocity": 0.6299212598425197
        },
        {
          "duration": 0.2556308479166667,
          "durationTicks": 227,
          "midi": 33,
          "name": "A1",
          "ticks": 26640,
          "time": 30.000025500000003,
          "velocity": 0.6299212598425197
        },
        {
          "duration": 0.25563084791667023,
          "durationTicks": 227,
          "midi": 40,
          "name": "E2",
          "ticks": 26880,
          "time": 30.270296000000002,
          "velocity": 0.6299212598425197
        },
        {
          "duration": 0.2556308479166667,
          "durationTicks": 227,
          "midi": 45,
          "name": "A2",
          "ticks": 27120,
          "time": 30.540566500000004,
          "velocity": 0.6299212598425197
        },
        {
          "duration": 0.2556308479166667,
          "durationTicks": 227,
          "midi": 33,
          "name": "A1",
          "ticks": 27360,
          "time": 30.810837000000003,
          "velocity": 0.6299212598425197
        },
        {
          "duration": 0.25563084791667023,
          "durationTicks": 227,
          "midi": 40,
          "name": "E2",
          "ticks": 27600,
          "time": 31.0811075,
          "velocity": 0.6299212598425197
        },
        {
          "duration": 0.2556308479166667,
          "durationTicks": 227,
          "midi": 45,
          "name": "A2",
          "ticks": 27840,
          "time": 31.351378000000004,
          "velocity": 0.6299212598425197
        },
        {
          "duration": 0.25563084791667023,
          "durationTicks": 227,
          "midi": 33,
          "name": "A1",
          "ticks": 28080,
          "time": 31.621648500000003,
          "velocity": 0.6299212598425197
        },
        {
          "duration": 0.25563084791667023,
          "durationTicks": 227,
          "midi": 40,
          "name": "E2",
          "ticks": 28320,
          "time": 31.891919,
          "velocity": 0.6299212598425197
        },
        {
          "duration": 0.25563084791667023,
          "durationTicks": 227,
          "midi": 45,
          "name": "A2",
          "ticks": 28560,
          "time": 32.162189500000004,
          "velocity": 0.6299212598425197
        },
        {
          "duration": 0.25563084791666313,
          "durationTicks": 227,
          "midi": 41,
          "name": "F2",
          "ticks": 28800,
          "time": 32.432460000000006,
          "velocity": 0.6299212598425197
        },
        {
          "duration": 0.25563084791667023,
          "durationTicks": 227,
          "midi": 48,
          "name": "C3",
          "ticks": 29040,
          "time": 32.7027305,
          "velocity": 0.6299212598425197
        },
        {
          "duration": 0.25563084791667023,
          "durationTicks": 227,
          "midi": 53,
          "name": "F3",
          "ticks": 29280,
          "time": 32.973001000000004,
          "velocity": 0.6299212598425197
        },
        {
          "duration": 0.25563084791666313,
          "durationTicks": 227,
          "midi": 41,
          "name": "F2",
          "ticks": 29520,
          "time": 33.243271500000006,
          "velocity": 0.6299212598425197
        },
        {
          "duration": 0.25563084791667023,
          "durationTicks": 227,
          "midi": 48,
          "name": "C3",
          "ticks": 29760,
          "time": 33.513542,
          "velocity": 0.6299212598425197
        },
        {
          "duration": 0.25563084791667023,
          "durationTicks": 227,
          "midi": 53,
          "name": "F3",
          "ticks": 30000,
          "time": 33.7838125,
          "velocity": 0.6299212598425197
        },
        {
          "duration": 0.25563084791666313,
          "durationTicks": 227,
          "midi": 41,
          "name": "F2",
          "ticks": 30240,
          "time": 34.054083000000006,
          "velocity": 0.6299212598425197
        },
        {
          "duration": 0.25563084791667023,
          "durationTicks": 227,
          "midi": 48,
          "name": "C3",
          "ticks": 30480,
          "time": 34.3243535,
          "velocity": 0.6299212598425197
        },
        {
          "duration": 0.25563084791666313,
          "durationTicks": 227,
          "midi": 53,
          "name": "F3",
          "ticks": 30720,
          "time": 34.594624,
          "velocity": 0.6299212598425197
        },
        {
          "duration": 0.25563084791666313,
          "durationTicks": 227,
          "midi": 41,
          "name": "F2",
          "ticks": 30960,
          "time": 34.864894500000005,
          "velocity": 0.6299212598425197
        },
        {
          "duration": 0.25563084791667023,
          "durationTicks": 227,
          "midi": 48,
          "name": "C3",
          "ticks": 31200,
          "time": 35.135165,
          "velocity": 0.6299212598425197
        },
        {
          "duration": 0.25563084791666313,
          "durationTicks": 227,
          "midi": 53,
          "name": "F3",
          "ticks": 31440,
          "time": 35.4054355,
          "velocity": 0.6299212598425197
        },
        {
          "duration": 0.25563084791666313,
          "durationTicks": 227,
          "midi": 38,
          "name": "D2",
          "ticks": 31680,
          "time": 35.675706000000005,
          "velocity": 0.6299212598425197
        },
        {
          "duration": 0.25563084791667023,
          "durationTicks": 227,
          "midi": 45,
          "name": "A2",
          "ticks": 31920,
          "time": 35.9459765,
          "velocity": 0.6299212598425197
        },
        {
          "duration": 0.25563084791666313,
          "durationTicks": 227,
          "midi": 50,
          "name": "D3",
          "ticks": 32160,
          "time": 36.216247,
          "velocity": 0.6299212598425197
        },
        {
          "duration": 0.25563084791666313,
          "durationTicks": 227,
          "midi": 38,
          "name": "D2",
          "ticks": 32400,
          "time": 36.486517500000005,
          "velocity": 0.6299212598425197
        },
        {
          "duration": 0.25563084791667023,
          "durationTicks": 227,
          "midi": 45,
          "name": "A2",
          "ticks": 32640,
          "time": 36.756788,
          "velocity": 0.6299212598425197
        },
        {
          "duration": 0.25563084791666313,
          "durationTicks": 227,
          "midi": 50,
          "name": "D3",
          "ticks": 32880,
          "time": 37.0270585,
          "velocity": 0.6299212598425197
        },
        {
          "duration": 0.25563084791666313,
          "durationTicks": 227,
          "midi": 38,
          "name": "D2",
          "ticks": 33120,
          "time": 37.297329000000005,
          "velocity": 0.6299212598425197
        },
        {
          "duration": 0.25563084791667023,
          "durationTicks": 227,
          "midi": 45,
          "name": "A2",
          "ticks": 33360,
          "time": 37.5675995,
          "velocity": 0.6299212598425197
        },
        {
          "duration": 0.25563084791666313,
          "durationTicks": 227,
          "midi": 50,
          "name": "D3",
          "ticks": 33600,
          "time": 37.83787,
          "velocity": 0.6299212598425197
        },
        {
          "duration": 0.25563084791666313,
          "durationTicks": 227,
          "midi": 38,
          "name": "D2",
          "ticks": 33840,
          "time": 38.108140500000005,
          "velocity": 0.6299212598425197
        },
        {
          "duration": 0.25563084791666313,
          "durationTicks": 227,
          "midi": 45,
          "name": "A2",
          "ticks": 34080,
          "time": 38.37841100000001,
          "velocity": 0.6299212598425197
        },
        {
          "duration": 0.25563084791666313,
          "durationTicks": 227,
          "midi": 50,
          "name": "D3",
          "ticks": 34320,
          "time": 38.6486815,
          "velocity": 0.6299212598425197
        },
        {
          "duration": 0.25563084791666313,
          "durationTicks": 227,
          "midi": 43,
          "name": "G2",
          "ticks": 34560,
          "time": 38.918952000000004,
          "velocity": 0.6299212598425197
        },
        {
          "duration": 0.25563084791666313,
          "durationTicks": 227,
          "midi": 50,
          "name": "D3",
          "ticks": 34800,
          "time": 39.18922250000001,
          "velocity": 0.6299212598425197
        },
        {
          "duration": 0.25563084791666313,
          "durationTicks": 227,
          "midi": 55,
          "name": "G3",
          "ticks": 35040,
          "time": 39.459493,
          "velocity": 0.6299212598425197
        },
        {
          "duration": 0.25563084791666313,
          "durationTicks": 227,
          "midi": 43,
          "name": "G2",
          "ticks": 35280,
          "time": 39.729763500000004,
          "velocity": 0.6299212598425197
        },
        {
          "duration": 0.25563084791666313,
          "durationTicks": 227,
          "midi": 50,
          "name": "D3",
          "ticks": 35520,
          "time": 40.00003400000001,
          "velocity": 0.6299212598425197
        },
        {
          "duration": 0.25563084791666313,
          "durationTicks": 227,
          "midi": 55,
          "name": "G3",
          "ticks": 35760,
          "time": 40.2703045,
          "velocity": 0.6299212598425197
        },
        {
          "duration": 0.25563084791666313,
          "durationTicks": 227,
          "midi": 43,
          "name": "G2",
          "ticks": 36000,
          "time": 40.540575000000004,
          "velocity": 0.6299212598425197
        },
        {
          "duration": 0.25563084791666313,
          "durationTicks": 227,
          "midi": 50,
          "name": "D3",
          "ticks": 36240,
          "time": 40.810845500000006,
          "velocity": 0.6299212598425197
        },
        {
          "duration": 0.25563084791667023,
          "durationTicks": 227,
          "midi": 55,
          "name": "G3",
          "ticks": 36480,
          "time": 41.081116,
          "velocity": 0.6299212598425197
        },
        {
          "duration": 0.25563084791666313,
          "durationTicks": 227,
          "midi": 43,
          "name": "G2",
          "ticks": 36720,
          "time": 41.351386500000004,
          "velocity": 0.6299212598425197
        },
        {
          "duration": 0.25563084791666313,
          "durationTicks": 227,
          "midi": 50,
          "name": "D3",
          "ticks": 36960,
          "time": 41.621657000000006,
          "velocity": 0.6299212598425197
        },
        {
          "duration": 0.25563084791667023,
          "durationTicks": 227,
          "midi": 55,
          "name": "G3",
          "ticks": 37200,
          "time": 41.8919275,
          "velocity": 0.6299212598425197
        },
        {
          "duration": 0.25563084791666313,
          "durationTicks": 227,
          "midi": 45,
          "name": "A2",
          "ticks": 37440,
          "time": 42.162198000000004,
          "velocity": 0.6299212598425197
        },
        {
          "duration": 0.25563084791666313,
          "durationTicks": 227,
          "midi": 52,
          "name": "E3",
          "ticks": 37680,
          "time": 42.432468500000006,
          "velocity": 0.6299212598425197
        },
        {
          "duration": 0.25563084791667023,
          "durationTicks": 227,
          "midi": 57,
          "name": "A3",
          "ticks": 37920,
          "time": 42.702739,
          "velocity": 0.6299212598425197
        },
        {
          "duration": 0.25563084791666313,
          "durationTicks": 227,
          "midi": 45,
          "name": "A2",
          "ticks": 38160,
          "time": 42.9730095,
          "velocity": 0.6299212598425197
        },
        {
          "duration": 0.25563084791666313,
          "durationTicks": 227,
          "midi": 52,
          "name": "E3",
          "ticks": 38400,
          "time": 43.243280000000006,
          "velocity": 0.6299212598425197
        },
        {
          "duration": 0.25563084791667023,
          "durationTicks": 227,
          "midi": 57,
          "name": "A3",
          "ticks": 38640,
          "time": 43.5135505,
          "velocity": 0.6299212598425197
        },
        {
          "duration": 0.25563084791666313,
          "durationTicks": 227,
          "midi": 45,
          "name": "A2",
          "ticks": 38880,
          "time": 43.783821,
          "velocity": 0.6299212598425197
        },
        {
          "duration": 0.25563084791666313,
          "durationTicks": 227,
          "midi": 52,
          "name": "E3",
          "ticks": 39120,
          "time": 44.054091500000006,
          "velocity": 0.6299212598425197
        },
        {
          "duration": 0.25563084791667023,
          "durationTicks": 227,
          "midi": 57,
          "name": "A3",
          "ticks": 39360,
          "time": 44.324362,
          "velocity": 0.6299212598425197
        },
        {
          "duration": 0.25563084791666313,
          "durationTicks": 227,
          "midi": 45,
          "name": "A2",
          "ticks": 39600,
          "time": 44.5946325,
          "velocity": 0.6299212598425197
        },
        {
          "duration": 0.25563084791666313,
          "durationTicks": 227,
          "midi": 52,
          "name": "E3",
          "ticks": 39840,
          "time": 44.864903000000005,
          "velocity": 0.6299212598425197
        },
        {
          "duration": 0.25563084791666313,
          "durationTicks": 227,
          "midi": 57,
          "name": "A3",
          "ticks": 40080,
          "time": 45.13517350000001,
          "velocity": 0.6299212598425197
        },
        {
          "duration": 0.25563084791666313,
          "durationTicks": 227,
          "midi": 38,
          "name": "D2",
          "ticks": 40320,
          "time": 45.405444,
          "velocity": 0.6299212598425197
        },
        {
          "duration": 0.25563084791666313,
          "durationTicks": 227,
          "midi": 45,
          "name": "A2",
          "ticks": 40560,
          "time": 45.675714500000005,
          "velocity": 0.6299212598425197
        },
        {
          "duration": 0.25563084791666313,
          "durationTicks": 227,
          "midi": 50,
          "name": "D3",
          "ticks": 40800,
          "time": 45.94598500000001,
          "velocity": 0.6299212598425197
        },
        {
          "duration": 0.25563084791666313,
          "durationTicks": 227,
          "midi": 38,
          "name": "D2",
          "ticks": 41040,
          "time": 46.2162555,
          "velocity": 0.6299212598425197
        },
        {
          "duration": 0.25563084791666313,
          "durationTicks": 227,
          "midi": 45,
          "name": "A2",
          "ticks": 41280,
          "time": 46.486526000000005,
          "velocity": 0.6299212598425197
        },
        {
          "duration": 0.25563084791666313,
          "durationTicks": 227,
          "midi": 50,
          "name": "D3",
          "ticks": 41520,
          "time": 46.75679650000001,
          "velocity": 0.6299212598425197
        },
        {
          "duration": 0.25563084791666313,
          "durationTicks": 227,
          "midi": 38,
          "name": "D2",
          "ticks": 41760,
          "time": 47.027067,
          "velocity": 0.6299212598425197
        },
        {
          "duration": 0.25563084791666313,
          "durationTicks": 227,
          "midi": 45,
          "name": "A2",
          "ticks": 42000,
          "time": 47.297337500000005,
          "velocity": 0.6299212598425197
        },
        {
          "duration": 0.25563084791666313,
          "durationTicks": 227,
          "midi": 50,
          "name": "D3",
          "ticks": 42240,
          "time": 47.56760800000001,
          "velocity": 0.6299212598425197
        },
        {
          "duration": 0.25563084791667023,
          "durationTicks": 227,
          "midi": 38,
          "name": "D2",
          "ticks": 42480,
          "time": 47.8378785,
          "velocity": 0.6299212598425197
        },
        {
          "duration": 0.25563084791666313,
          "durationTicks": 227,
          "midi": 45,
          "name": "A2",
          "ticks": 42720,
          "time": 48.108149000000004,
          "velocity": 0.6299212598425197
        },
        {
          "duration": 0.25563084791666313,
          "durationTicks": 227,
          "midi": 50,
          "name": "D3",
          "ticks": 42960,
          "time": 48.37841950000001,
          "velocity": 0.6299212598425197
        },
        {
          "duration": 0.25563084791667023,
          "durationTicks": 227,
          "midi": 36,
          "name": "C2",
          "ticks": 43200,
          "time": 48.64869,
          "velocity": 0.6299212598425197
        },
        {
          "duration": 0.25563084791666313,
          "durationTicks": 227,
          "midi": 43,
          "name": "G2",
          "ticks": 43440,
          "time": 48.918960500000004,
          "velocity": 0.6299212598425197
        },
        {
          "duration": 0.25563084791666313,
          "durationTicks": 227,
          "midi": 48,
          "name": "C3",
          "ticks": 43680,
          "time": 49.18923100000001,
          "velocity": 0.6299212598425197
        },
        {
          "duration": 0.25563084791667023,
          "durationTicks": 227,
          "midi": 36,
          "name": "C2",
          "ticks": 43920,
          "time": 49.4595015,
          "velocity": 0.6299212598425197
        },
        {
          "duration": 0.25563084791666313,
          "durationTicks": 227,
          "midi": 43,
          "name": "G2",
          "ticks": 44160,
          "time": 49.729772000000004,
          "velocity": 0.6299212598425197
        },
        {
          "duration": 0.25563084791666313,
          "durationTicks": 227,
          "midi": 48,
          "name": "C3",
          "ticks": 44400,
          "time": 50.000042500000006,
          "velocity": 0.6299212598425197
        },
        {
          "duration": 0.25563084791667023,
          "durationTicks": 227,
          "midi": 36,
          "name": "C2",
          "ticks": 44640,
          "time": 50.270313,
          "velocity": 0.6299212598425197
        },
        {
          "duration": 0.25563084791666313,
          "durationTicks": 227,
          "midi": 43,
          "name": "G2",
          "ticks": 44880,
          "time": 50.540583500000004,
          "velocity": 0.6299212598425197
        },
        {
          "duration": 0.25563084791666313,
          "durationTicks": 227,
          "midi": 48,
          "name": "C3",
          "ticks": 45120,
          "time": 50.810854000000006,
          "velocity": 0.6299212598425197
        },
        {
          "duration": 0.25563084791667023,
          "durationTicks": 227,
          "midi": 36,
          "name": "C2",
          "ticks": 45360,
          "time": 51.0811245,
          "velocity": 0.6299212598425197
        },
        {
          "duration": 0.25563084791666313,
          "durationTicks": 227,
          "midi": 43,
          "name": "G2",
          "ticks": 45600,
          "time": 51.351395000000004,
          "velocity": 0.6299212598425197
        },
        {
          "duration": 0.25563084791666313,
          "durationTicks": 227,
          "midi": 48,
          "name": "C3",
          "ticks": 45840,
          "time": 51.621665500000006,
          "velocity": 0.6299212598425197
        },
        {
          "duration": 0.12725236041666932,
          "durationTicks": 113,
          "midi": 46,
          "name": "A#2",
          "ticks": 46080,
          "time": 51.891936,
          "velocity": 0.6299212598425197
        },
        {
          "duration": 0.1272523604166622,
          "durationTicks": 113,
          "midi": 45,
          "name": "A2",
          "ticks": 46800,
          "time": 52.70274750000001,
          "velocity": 0.6299212598425197
        },
        {
          "duration": 0.1272523604166622,
          "durationTicks": 113,
          "midi": 44,
          "name": "G#2",
          "ticks": 47520,
          "time": 53.51355900000001,
          "velocity": 0.6299212598425197
        },
        {
          "duration": 0.1272523604166622,
          "durationTicks": 113,
          "midi": 43,
          "name": "G2",
          "ticks": 48240,
          "time": 54.32437050000001,
          "velocity": 0.6299212598425197
        },
        {
          "duration": 0.7691447979166668,
          "durationTicks": 683,
          "midi": 33,
          "name": "A1",
          "ticks": 48960,
          "time": 55.13518200000001,
          "velocity": 0.6299212598425197
        },
        {
          "duration": 0.7691447979166668,
          "durationTicks": 683,
          "midi": 45,
          "name": "A2",
          "ticks": 48960,
          "time": 55.13518200000001,
          "velocity": 0.6299212598425197
        },
        {
          "duration": 0.7691447979166668,
          "durationTicks": 683,
          "midi": 33,
          "name": "A1",
          "ticks": 49680,
          "time": 55.94599350000001,
          "velocity": 0.6299212598425197
        },
        {
          "duration": 0.7691447979166668,
          "durationTicks": 683,
          "midi": 45,
          "name": "A2",
          "ticks": 49680,
          "time": 55.94599350000001,
          "velocity": 0.6299212598425197
        },
        {
          "duration": 0.7691447979166668,
          "durationTicks": 683,
          "midi": 33,
          "name": "A1",
          "ticks": 50400,
          "time": 56.75680500000001,
          "velocity": 0.6299212598425197
        },
        {
          "duration": 0.7691447979166668,
          "durationTicks": 683,
          "midi": 45,
          "name": "A2",
          "ticks": 50400,
          "time": 56.75680500000001,
          "velocity": 0.6299212598425197
        },
        {
          "duration": 0.7691447979166668,
          "durationTicks": 683,
          "midi": 33,
          "name": "A1",
          "ticks": 51120,
          "time": 57.56761650000001,
          "velocity": 0.6299212598425197
        },
        {
          "duration": 0.7691447979166668,
          "durationTicks": 683,
          "midi": 45,
          "name": "A2",
          "ticks": 51120,
          "time": 57.56761650000001,
          "velocity": 0.6299212598425197
        },
        {
          "duration": 0.7691447979166668,
          "durationTicks": 683,
          "midi": 29,
          "name": "F1",
          "ticks": 51840,
          "time": 58.37842800000001,
          "velocity": 0.6299212598425197
        },
        {
          "duration": 0.7691447979166668,
          "durationTicks": 683,
          "midi": 41,
          "name": "F2",
          "ticks": 51840,
          "time": 58.37842800000001,
          "velocity": 0.6299212598425197
        },
        {
          "duration": 0.7691447979166668,
          "durationTicks": 683,
          "midi": 29,
          "name": "F1",
          "ticks": 52560,
          "time": 59.189239500000006,
          "velocity": 0.6299212598425197
        },
        {
          "duration": 0.7691447979166668,
          "durationTicks": 683,
          "midi": 41,
          "name": "F2",
          "ticks": 52560,
          "time": 59.189239500000006,
          "velocity": 0.6299212598425197
        },
        {
          "duration": 0.7691447979166668,
          "durationTicks": 683,
          "midi": 29,
          "name": "F1",
          "ticks": 53280,
          "time": 60.000051000000006,
          "velocity": 0.6299212598425197
        },
        {
          "duration": 0.7691447979166668,
          "durationTicks": 683,
          "midi": 41,
          "name": "F2",
          "ticks": 53280,
          "time": 60.000051000000006,
          "velocity": 0.6299212598425197
        },
        {
          "duration": 0.7691447979166668,
          "durationTicks": 683,
          "midi": 29,
          "name": "F1",
          "ticks": 54000,
          "time": 60.810862500000006,
          "velocity": 0.6299212598425197
        },
        {
          "duration": 0.7691447979166668,
          "durationTicks": 683,
          "midi": 41,
          "name": "F2",
          "ticks": 54000,
          "time": 60.810862500000006,
          "velocity": 0.6299212598425197
        },
        {
          "duration": 0.7691447979166668,
          "durationTicks": 683,
          "midi": 33,
          "name": "A1",
          "ticks": 54720,
          "time": 61.621674000000006,
          "velocity": 0.6299212598425197
        },
        {
          "duration": 0.7691447979166668,
          "durationTicks": 683,
          "midi": 45,
          "name": "A2",
          "ticks": 54720,
          "time": 61.621674000000006,
          "velocity": 0.6299212598425197
        },
        {
          "duration": 0.7691447979166668,
          "durationTicks": 683,
          "midi": 33,
          "name": "A1",
          "ticks": 55440,
          "time": 62.432485500000006,
          "velocity": 0.6299212598425197
        },
        {
          "duration": 0.7691447979166668,
          "durationTicks": 683,
          "midi": 45,
          "name": "A2",
          "ticks": 55440,
          "time": 62.432485500000006,
          "velocity": 0.6299212598425197
        },
        {
          "duration": 0.7691447979166597,
          "durationTicks": 683,
          "midi": 33,
          "name": "A1",
          "ticks": 56160,
          "time": 63.243297000000005,
          "velocity": 0.6299212598425197
        },
        {
          "duration": 0.7691447979166597,
          "durationTicks": 683,
          "midi": 45,
          "name": "A2",
          "ticks": 56160,
          "time": 63.243297000000005,
          "velocity": 0.6299212598425197
        },
        {
          "duration": 0.7691447979166668,
          "durationTicks": 683,
          "midi": 33,
          "name": "A1",
          "ticks": 56880,
          "time": 64.05410850000001,
          "velocity": 0.6299212598425197
        },
        {
          "duration": 0.7691447979166668,
          "durationTicks": 683,
          "midi": 45,
          "name": "A2",
          "ticks": 56880,
          "time": 64.05410850000001,
          "velocity": 0.6299212598425197
        },
        {
          "duration": 0.25563084791666313,
          "durationTicks": 227,
          "midi": 38,
          "name": "D2",
          "ticks": 57600,
          "time": 64.86492000000001,
          "velocity": 0.6299212598425197
        },
        {
          "duration": 0.25563084791666313,
          "durationTicks": 227,
          "midi": 45,
          "name": "A2",
          "ticks": 57840,
          "time": 65.13519050000001,
          "velocity": 0.6299212598425197
        },
        {
          "duration": 0.25563084791666313,
          "durationTicks": 227,
          "midi": 50,
          "name": "D3",
          "ticks": 58080,
          "time": 65.405461,
          "velocity": 0.6299212598425197
        },
        {
          "duration": 0.25563084791666313,
          "durationTicks": 227,
          "midi": 38,
          "name": "D2",
          "ticks": 58320,
          "time": 65.67573150000001,
          "velocity": 0.6299212598425197
        },
        {
          "duration": 0.25563084791666313,
          "durationTicks": 227,
          "midi": 45,
          "name": "A2",
          "ticks": 58560,
          "time": 65.94600200000001,
          "velocity": 0.6299212598425197
        },
        {
          "duration": 0.25563084791666313,
          "durationTicks": 227,
          "midi": 50,
          "name": "D3",
          "ticks": 58800,
          "time": 66.2162725,
          "velocity": 0.6299212598425197
        },
        {
          "duration": 0.25563084791666313,
          "durationTicks": 227,
          "midi": 38,
          "name": "D2",
          "ticks": 59040,
          "time": 66.48654300000001,
          "velocity": 0.6299212598425197
        },
        {
          "duration": 0.25563084791666313,
          "durationTicks": 227,
          "midi": 45,
          "name": "A2",
          "ticks": 59280,
          "time": 66.7568135,
          "velocity": 0.6299212598425197
        },
        {
          "duration": 0.25563084791666313,
          "durationTicks": 227,
          "midi": 50,
          "name": "D3",
          "ticks": 59520,
          "time": 67.027084,
          "velocity": 0.6299212598425197
        },
        {
          "duration": 0.25563084791666313,
          "durationTicks": 227,
          "midi": 38,
          "name": "D2",
          "ticks": 59760,
          "time": 67.29735450000001,
          "velocity": 0.6299212598425197
        },
        {
          "duration": 0.25563084791666313,
          "durationTicks": 227,
          "midi": 45,
          "name": "A2",
          "ticks": 60000,
          "time": 67.567625,
          "velocity": 0.6299212598425197
        },
        {
          "duration": 0.25563084791666313,
          "durationTicks": 227,
          "midi": 50,
          "name": "D3",
          "ticks": 60240,
          "time": 67.8378955,
          "velocity": 0.6299212598425197
        },
        {
          "duration": 0.25563084791666313,
          "durationTicks": 227,
          "midi": 36,
          "name": "C2",
          "ticks": 60480,
          "time": 68.10816600000001,
          "velocity": 0.6299212598425197
        },
        {
          "duration": 0.25563084791666313,
          "durationTicks": 227,
          "midi": 43,
          "name": "G2",
          "ticks": 60720,
          "time": 68.3784365,
          "velocity": 0.6299212598425197
        },
        {
          "duration": 0.25563084791666313,
          "durationTicks": 227,
          "midi": 48,
          "name": "C3",
          "ticks": 60960,
          "time": 68.648707,
          "velocity": 0.6299212598425197
        },
        {
          "duration": 0.25563084791666313,
          "durationTicks": 227,
          "midi": 36,
          "name": "C2",
          "ticks": 61200,
          "time": 68.91897750000001,
          "velocity": 0.6299212598425197
        },
        {
          "duration": 0.25563084791666313,
          "durationTicks": 227,
          "midi": 43,
          "name": "G2",
          "ticks": 61440,
          "time": 69.189248,
          "velocity": 0.6299212598425197
        },
        {
          "duration": 0.25563084791666313,
          "durationTicks": 227,
          "midi": 48,
          "name": "C3",
          "ticks": 61680,
          "time": 69.4595185,
          "velocity": 0.6299212598425197
        },
        {
          "duration": 0.25563084791666313,
          "durationTicks": 227,
          "midi": 36,
          "name": "C2",
          "ticks": 61920,
          "time": 69.72978900000001,
          "velocity": 0.6299212598425197
        },
        {
          "duration": 0.25563084791666313,
          "durationTicks": 227,
          "midi": 43,
          "name": "G2",
          "ticks": 62160,
          "time": 70.0000595,
          "velocity": 0.6299212598425197
        },
        {
          "duration": 0.25563084791666313,
          "durationTicks": 227,
          "midi": 48,
          "name": "C3",
          "ticks": 62400,
          "time": 70.27033,
          "velocity": 0.6299212598425197
        },
        {
          "duration": 0.25563084791666313,
          "durationTicks": 227,
          "midi": 36,
          "name": "C2",
          "ticks": 62640,
          "time": 70.54060050000001,
          "velocity": 0.6299212598425197
        },
        {
          "duration": 0.25563084791666313,
          "durationTicks": 227,
          "midi": 43,
          "name": "G2",
          "ticks": 62880,
          "time": 70.810871,
          "velocity": 0.6299212598425197
        },
        {
          "duration": 0.25563084791666313,
          "durationTicks": 227,
          "midi": 48,
          "name": "C3",
          "ticks": 63120,
          "time": 71.0811415,
          "velocity": 0.6299212598425197
        },
        {
          "duration": 0.25563084791666313,
          "durationTicks": 227,
          "midi": 40,
          "name": "E2",
          "ticks": 63360,
          "time": 71.35141200000001,
          "velocity": 0.6299212598425197
        },
        {
          "duration": 0.25563084791666313,
          "durationTicks": 227,
          "midi": 47,
          "name": "B2",
          "ticks": 63600,
          "time": 71.6216825,
          "velocity": 0.6299212598425197
        },
        {
          "duration": 0.25563084791667734,
          "durationTicks": 227,
          "midi": 52,
          "name": "E3",
          "ticks": 63840,
          "time": 71.891953,
          "velocity": 0.6299212598425197
        },
        {
          "duration": 0.25563084791666313,
          "durationTicks": 227,
          "midi": 40,
          "name": "E2",
          "ticks": 64080,
          "time": 72.16222350000001,
          "velocity": 0.6299212598425197
        },
        {
          "duration": 0.25563084791666313,
          "durationTicks": 227,
          "midi": 47,
          "name": "B2",
          "ticks": 64320,
          "time": 72.432494,
          "velocity": 0.6299212598425197
        },
        {
          "duration": 0.25563084791667734,
          "durationTicks": 227,
          "midi": 52,
          "name": "E3",
          "ticks": 64560,
          "time": 72.7027645,
          "velocity": 0.6299212598425197
        },
        {
          "duration": 0.25563084791666313,
          "durationTicks": 227,
          "midi": 40,
          "name": "E2",
          "ticks": 64800,
          "time": 72.97303500000001,
          "velocity": 0.6299212598425197
        },
        {
          "duration": 0.25563084791666313,
          "durationTicks": 227,
          "midi": 47,
          "name": "B2",
          "ticks": 65040,
          "time": 73.2433055,
          "velocity": 0.6299212598425197
        },
        {
          "duration": 0.25563084791667734,
          "durationTicks": 227,
          "midi": 52,
          "name": "E3",
          "ticks": 65280,
          "time": 73.513576,
          "velocity": 0.6299212598425197
        },
        {
          "duration": 0.25563084791666313,
          "durationTicks": 227,
          "midi": 40,
          "name": "E2",
          "ticks": 65520,
          "time": 73.78384650000001,
          "velocity": 0.6299212598425197
        },
        {
          "duration": 0.25563084791666313,
          "durationTicks": 227,
          "midi": 47,
          "name": "B2",
          "ticks": 65760,
          "time": 74.054117,
          "velocity": 0.6299212598425197
        },
        {
          "duration": 0.25563084791667734,
          "durationTicks": 227,
          "midi": 52,
          "name": "E3",
          "ticks": 66000,
          "time": 74.3243875,
          "velocity": 0.6299212598425197
        },
        {
          "duration": 0.25563084791666313,
          "durationTicks": 227,
          "midi": 34,
          "name": "A#1",
          "ticks": 66240,
          "time": 74.59465800000001,
          "velocity": 0.6299212598425197
        },
        {
          "duration": 0.25563084791666313,
          "durationTicks": 227,
          "midi": 41,
          "name": "F2",
          "ticks": 66480,
          "time": 74.8649285,
          "velocity": 0.6299212598425197
        },
        {
          "duration": 0.25563084791667734,
          "durationTicks": 227,
          "midi": 46,
          "name": "A#2",
          "ticks": 66720,
          "time": 75.135199,
          "velocity": 0.6299212598425197
        },
        {
          "duration": 0.25563084791666313,
          "durationTicks": 227,
          "midi": 34,
          "name": "A#1",
          "ticks": 66960,
          "time": 75.40546950000001,
          "velocity": 0.6299212598425197
        },
        {
          "duration": 0.25563084791666313,
          "durationTicks": 227,
          "midi": 41,
          "name": "F2",
          "ticks": 67200,
          "time": 75.67574,
          "velocity": 0.6299212598425197
        },
        {
          "duration": 0.25563084791667734,
          "durationTicks": 227,
          "midi": 46,
          "name": "A#2",
          "ticks": 67440,
          "time": 75.9460105,
          "velocity": 0.6299212598425197
        },
        {
          "duration": 0.25563084791666313,
          "durationTicks": 227,
          "midi": 33,
          "name": "A1",
          "ticks": 67680,
          "time": 76.21628100000001,
          "velocity": 0.6299212598425197
        },
        {
          "duration": 0.25563084791666313,
          "durationTicks": 227,
          "midi": 40,
          "name": "E2",
          "ticks": 67920,
          "time": 76.4865515,
          "velocity": 0.6299212598425197
        },
        {
          "duration": 0.25563084791666313,
          "durationTicks": 227,
          "midi": 45,
          "name": "A2",
          "ticks": 68160,
          "time": 76.75682200000001,
          "velocity": 0.6299212598425197
        },
        {
          "duration": 0.25563084791666313,
          "durationTicks": 227,
          "midi": 33,
          "name": "A1",
          "ticks": 68400,
          "time": 77.02709250000001,
          "velocity": 0.6299212598425197
        },
        {
          "duration": 0.25563084791666313,
          "durationTicks": 227,
          "midi": 40,
          "name": "E2",
          "ticks": 68640,
          "time": 77.297363,
          "velocity": 0.6299212598425197
        },
        {
          "duration": 0.25563084791666313,
          "durationTicks": 227,
          "midi": 45,
          "name": "A2",
          "ticks": 68880,
          "time": 77.56763350000001,
          "velocity": 0.6299212598425197
        },
        {
          "duration": 0.25563084791666313,
          "durationTicks": 227,
          "midi": 41,
          "name": "F2",
          "ticks": 69120,
          "time": 77.83790400000001,
          "velocity": 0.6299212598425197
        },
        {
          "duration": 0.25563084791666313,
          "durationTicks": 227,
          "midi": 48,
          "name": "C3",
          "ticks": 69360,
          "time": 78.1081745,
          "velocity": 0.6299212598425197
        },
        {
          "duration": 0.25563084791666313,
          "durationTicks": 227,
          "midi": 53,
          "name": "F3",
          "ticks": 69600,
          "time": 78.37844500000001,
          "velocity": 0.6299212598425197
        },
        {
          "duration": 0.25563084791666313,
          "durationTicks": 227,
          "midi": 41,
          "name": "F2",
          "ticks": 69840,
          "time": 78.64871550000001,
          "velocity": 0.6299212598425197
        },
        {
          "duration": 0.25563084791666313,
          "durationTicks": 227,
          "midi": 48,
          "name": "C3",
          "ticks": 70080,
          "time": 78.918986,
          "velocity": 0.6299212598425197
        },
        {
          "duration": 0.25563084791666313,
          "durationTicks": 227,
          "midi": 53,
          "name": "F3",
          "ticks": 70320,
          "time": 79.18925650000001,
          "velocity": 0.6299212598425197
        },
        {
          "duration": 0.25563084791666313,
          "durationTicks": 227,
          "midi": 41,
          "name": "F2",
          "ticks": 70560,
          "time": 79.45952700000001,
          "velocity": 0.6299212598425197
        },
        {
          "duration": 0.25563084791666313,
          "durationTicks": 227,
          "midi": 48,
          "name": "C3",
          "ticks": 70800,
          "time": 79.7297975,
          "velocity": 0.6299212598425197
        },
        {
          "duration": 0.25563084791666313,
          "durationTicks": 227,
          "midi": 53,
          "name": "F3",
          "ticks": 71040,
          "time": 80.00006800000001,
          "velocity": 0.6299212598425197
        },
        {
          "duration": 0.25563084791666313,
          "durationTicks": 227,
          "midi": 41,
          "name": "F2",
          "ticks": 71280,
          "time": 80.27033850000001,
          "velocity": 0.6299212598425197
        },
        {
          "duration": 0.25563084791666313,
          "durationTicks": 227,
          "midi": 48,
          "name": "C3",
          "ticks": 71520,
          "time": 80.540609,
          "velocity": 0.6299212598425197
        },
        {
          "duration": 0.25563084791666313,
          "durationTicks": 227,
          "midi": 53,
          "name": "F3",
          "ticks": 71760,
          "time": 80.81087950000001,
          "velocity": 0.6299212598425197
        },
        {
          "duration": 0.25563084791666313,
          "durationTicks": 227,
          "midi": 38,
          "name": "D2",
          "ticks": 72000,
          "time": 81.08115000000001,
          "velocity": 0.6299212598425197
        },
        {
          "duration": 0.25563084791666313,
          "durationTicks": 227,
          "midi": 45,
          "name": "A2",
          "ticks": 72240,
          "time": 81.3514205,
          "velocity": 0.6299212598425197
        },
        {
          "duration": 0.25563084791666313,
          "durationTicks": 227,
          "midi": 50,
          "name": "D3",
          "ticks": 72480,
          "time": 81.62169100000001,
          "velocity": 0.6299212598425197
        },
        {
          "duration": 0.25563084791666313,
          "durationTicks": 227,
          "midi": 38,
          "name": "D2",
          "ticks": 72720,
          "time": 81.89196150000001,
          "velocity": 0.6299212598425197
        },
        {
          "duration": 0.25563084791666313,
          "durationTicks": 227,
          "midi": 45,
          "name": "A2",
          "ticks": 72960,
          "time": 82.162232,
          "velocity": 0.6299212598425197
        },
        {
          "duration": 0.25563084791666313,
          "durationTicks": 227,
          "midi": 50,
          "name": "D3",
          "ticks": 73200,
          "time": 82.43250250000001,
          "velocity": 0.6299212598425197
        },
        {
          "duration": 0.25563084791666313,
          "durationTicks": 227,
          "midi": 38,
          "name": "D2",
          "ticks": 73440,
          "time": 82.70277300000001,
          "velocity": 0.6299212598425197
        },
        {
          "duration": 0.25563084791666313,
          "durationTicks": 227,
          "midi": 45,
          "name": "A2",
          "ticks": 73680,
          "time": 82.9730435,
          "velocity": 0.6299212598425197
        },
        {
          "duration": 0.25563084791666313,
          "durationTicks": 227,
          "midi": 50,
          "name": "D3",
          "ticks": 73920,
          "time": 83.24331400000001,
          "velocity": 0.6299212598425197
        },
        {
          "duration": 0.25563084791666313,
          "durationTicks": 227,
          "midi": 38,
          "name": "D2",
          "ticks": 74160,
          "time": 83.51358450000001,
          "velocity": 0.6299212598425197
        },
        {
          "duration": 0.25563084791666313,
          "durationTicks": 227,
          "midi": 45,
          "name": "A2",
          "ticks": 74400,
          "time": 83.783855,
          "velocity": 0.6299212598425197
        },
        {
          "duration": 0.25563084791666313,
          "durationTicks": 227,
          "midi": 50,
          "name": "D3",
          "ticks": 74640,
          "time": 84.05412550000001,
          "velocity": 0.6299212598425197
        },
        {
          "duration": 0.12725236041667642,
          "durationTicks": 113,
          "midi": 58,
          "name": "A#3",
          "ticks": 74880,
          "time": 84.32439600000001,
          "velocity": 0.6299212598425197
        },
        {
          "duration": 0.12725236041667642,
          "durationTicks": 113,
          "midi": 57,
          "name": "A3",
          "ticks": 75600,
          "time": 85.1352075,
          "velocity": 0.6299212598425197
        },
        {
          "duration": 0.12725236041667642,
          "durationTicks": 113,
          "midi": 56,
          "name": "G#3",
          "ticks": 76320,
          "time": 85.946019,
          "velocity": 0.6299212598425197
        },
        {
          "duration": 0.12725236041667642,
          "durationTicks": 113,
          "midi": 55,
          "name": "G3",
          "ticks": 77040,
          "time": 86.7568305,
          "velocity": 0.6299212598425197
        },
        {
          "duration": 3.079957572916669,
          "durationTicks": 2735,
          "midi": 33,
          "name": "A1",
          "ticks": 77760,
          "time": 87.567642,
          "velocity": 0.6299212598425197
        },
        {
          "duration": 3.079957572916669,
          "durationTicks": 2735,
          "midi": 45,
          "name": "A2",
          "ticks": 77760,
          "time": 87.567642,
          "velocity": 0.6299212598425197
        }
      ],
      "endOfTrackTicks": 80496
    }
  ]
}